ISO-10303-21;
HEADER;
FILE_DESCRIPTION(('KiCad electronic assembly'),'2;1');
FILE_NAME('SSD1309_glass.step','2026-10-09T23:41:08',('Pcbnew'),('Kicad'
    ),'Open CASCADE STEP processor 7.9','KiCad to STEP converter',
  'Unknown');
FILE_SCHEMA(('AUTOMOTIVE_DESIGN { 1 0 10303 214 1 1 1 1 }'));
ENDSEC;
DATA;
#1 = APPLICATION_PROTOCOL_DEFINITION('international standard',
  'automotive_design',2000,#2);
#2 = APPLICATION_CONTEXT(
  'core data for automotive mechanical design processes');
#3 = SHAPE_DEFINITION_REPRESENTATION(#4,#10);
#4 = PRODUCT_DEFINITION_SHAPE('','',#5);
#5 = PRODUCT_DEFINITION('design','',#6,#9);
#6 = PRODUCT_DEFINITION_FORMATION('','',#7);
#7 = PRODUCT('SSD1309_glass 1','SSD1309_glass 1','',(#8));
#8 = PRODUCT_CONTEXT('',#2,'mechanical');
#9 = PRODUCT_DEFINITION_CONTEXT('part definition',#2,'design');
#10 = SHAPE_REPRESENTATION('',(#11,#15,#19),#23);
#11 = AXIS2_PLACEMENT_3D('',#12,#13,#14);
#12 = CARTESIAN_POINT('',(0.,0.,0.));
#13 = DIRECTION('',(0.,0.,1.));
#14 = DIRECTION('',(1.,0.,-0.));
#15 = AXIS2_PLACEMENT_3D('',#16,#17,#18);
#16 = CARTESIAN_POINT('',(0.,0.,0.));
#17 = DIRECTION('',(0.,0.,1.));
#18 = DIRECTION('',(1.,0.,-0.));
#19 = AXIS2_PLACEMENT_3D('',#20,#21,#22);
#20 = CARTESIAN_POINT('',(0.,0.,0.));
#21 = DIRECTION('',(0.,0.,1.));
#22 = DIRECTION('',(1.,0.,-0.));
#23 = ( GEOMETRIC_REPRESENTATION_CONTEXT(3) 
GLOBAL_UNCERTAINTY_ASSIGNED_CONTEXT((#27)) GLOBAL_UNIT_ASSIGNED_CONTEXT(
(#24,#25,#26)) REPRESENTATION_CONTEXT('Context #1',
  '3D Context with UNIT and UNCERTAINTY') );
#24 = ( LENGTH_UNIT() NAMED_UNIT(*) SI_UNIT(.MILLI.,.METRE.) );
#25 = ( NAMED_UNIT(*) PLANE_ANGLE_UNIT() SI_UNIT($,.RADIAN.) );
#26 = ( NAMED_UNIT(*) SI_UNIT($,.STERADIAN.) SOLID_ANGLE_UNIT() );
#27 = UNCERTAINTY_MEASURE_WITH_UNIT(LENGTH_MEASURE(1.E-07),#24,
  'distance_accuracy_value','confusion accuracy');
#28 = PRODUCT_RELATED_PRODUCT_CATEGORY('part',$,(#7));
#29 = SHAPE_DEFINITION_REPRESENTATION(#30,#36);
#30 = PRODUCT_DEFINITION_SHAPE('','',#31);
#31 = PRODUCT_DEFINITION('design','',#32,#35);
#32 = PRODUCT_DEFINITION_FORMATION('','',#33);
#33 = PRODUCT('glass_silkscreen','glass_silkscreen','',(#34));
#34 = PRODUCT_CONTEXT('',#2,'mechanical');
#35 = PRODUCT_DEFINITION_CONTEXT('part definition',#2,'design');
#36 = SHAPE_REPRESENTATION('',(#11,#37,#188,#434,#983,#1384,#1494),#1653
  );
#37 = SHELL_BASED_SURFACE_MODEL('',(#38));
#38 = OPEN_SHELL('',(#39));
#39 = ADVANCED_FACE('',(#40),#183,.T.);
#40 = FACE_BOUND('',#41,.F.);
#41 = EDGE_LOOP('',(#42,#53,#61,#69,#78,#86,#94,#103,#111,#120,#128,#136
    ,#144,#152,#161,#169,#177));
#42 = ORIENTED_EDGE('',*,*,#43,.T.);
#43 = EDGE_CURVE('',#44,#46,#48,.T.);
#44 = VERTEX_POINT('',#45);
#45 = CARTESIAN_POINT('',(-5.226333,1.297787,1.275));
#46 = VERTEX_POINT('',#47);
#47 = CARTESIAN_POINT('',(-5.081134,1.375438,1.275));
#48 = CIRCLE('',#49,0.174817910159);
#49 = AXIS2_PLACEMENT_3D('',#50,#51,#52);
#50 = CARTESIAN_POINT('',(-5.081006118893,1.200620136614,1.275));
#51 = DIRECTION('',(0.,0.,-1.));
#52 = DIRECTION('',(-0.831304303856,0.55581755495,0.));
#53 = ORIENTED_EDGE('',*,*,#54,.T.);
#54 = EDGE_CURVE('',#46,#55,#57,.T.);
#55 = VERTEX_POINT('',#56);
#56 = CARTESIAN_POINT('',(-5.064134,1.372075,1.275));
#57 = LINE('',#58,#59);
#58 = CARTESIAN_POINT('',(-5.081134,1.375438,1.275));
#59 = VECTOR('',#60,1.);
#60 = DIRECTION('',(0.980989121596,-0.194062730349,0.));
#61 = ORIENTED_EDGE('',*,*,#62,.T.);
#62 = EDGE_CURVE('',#55,#63,#65,.T.);
#63 = VERTEX_POINT('',#64);
#64 = CARTESIAN_POINT('',(-5.04681,1.372075,1.275));
#65 = LINE('',#66,#67);
#66 = CARTESIAN_POINT('',(-5.064134,1.372075,1.275));
#67 = VECTOR('',#68,1.);
#68 = DIRECTION('',(1.,0.,0.));
#69 = ORIENTED_EDGE('',*,*,#70,.T.);
#70 = EDGE_CURVE('',#63,#71,#73,.T.);
#71 = VERTEX_POINT('',#72);
#72 = CARTESIAN_POINT('',(-4.905951,1.200438,1.275));
#73 = CIRCLE('',#74,0.174999635558);
#74 = AXIS2_PLACEMENT_3D('',#75,#76,#77);
#75 = CARTESIAN_POINT('',(-5.080950635558,1.200437913538,1.275));
#76 = DIRECTION('',(0.,0.,-1.));
#77 = DIRECTION('',(0.195089752324,0.980785393722,0.));
#78 = ORIENTED_EDGE('',*,*,#79,.T.);
#79 = EDGE_CURVE('',#71,#80,#82,.T.);
#80 = VERTEX_POINT('',#81);
#81 = CARTESIAN_POINT('',(-4.905951,-0.824561,1.275));
#82 = LINE('',#83,#84);
#83 = CARTESIAN_POINT('',(-4.905951,1.200438,1.275));
#84 = VECTOR('',#85,1.);
#85 = DIRECTION('',(0.,-1.,0.));
#86 = ORIENTED_EDGE('',*,*,#87,.T.);
#87 = EDGE_CURVE('',#80,#88,#90,.T.);
#88 = VERTEX_POINT('',#89);
#89 = CARTESIAN_POINT('',(-4.45238,-0.824561,1.275));
#90 = LINE('',#91,#92);
#91 = CARTESIAN_POINT('',(-4.905951,-0.824561,1.275));
#92 = VECTOR('',#93,1.);
#93 = DIRECTION('',(1.,0.,0.));
#94 = ORIENTED_EDGE('',*,*,#95,.T.);
#95 = EDGE_CURVE('',#88,#96,#98,.T.);
#96 = VERTEX_POINT('',#97);
#97 = CARTESIAN_POINT('',(-4.45238,-1.174561,1.275));
#98 = CIRCLE('',#99,0.175);
#99 = AXIS2_PLACEMENT_3D('',#100,#101,#102);
#100 = CARTESIAN_POINT('',(-4.452380385552,-0.999561,1.275));
#101 = DIRECTION('',(0.,0.,-1.));
#102 = DIRECTION('',(2.203154661875E-06,0.999999999998,0.));
#103 = ORIENTED_EDGE('',*,*,#104,.T.);
#104 = EDGE_CURVE('',#96,#105,#107,.T.);
#105 = VERTEX_POINT('',#106);
#106 = CARTESIAN_POINT('',(-5.709523,-1.174561,1.275));
#107 = LINE('',#108,#109);
#108 = CARTESIAN_POINT('',(-4.45238,-1.174561,1.275));
#109 = VECTOR('',#110,1.);
#110 = DIRECTION('',(-1.,0.,0.));
#111 = ORIENTED_EDGE('',*,*,#112,.T.);
#112 = EDGE_CURVE('',#105,#113,#115,.T.);
#113 = VERTEX_POINT('',#114);
#114 = CARTESIAN_POINT('',(-5.709523,-0.824561,1.275));
#115 = CIRCLE('',#116,0.175);
#116 = AXIS2_PLACEMENT_3D('',#117,#118,#119);
#117 = CARTESIAN_POINT('',(-5.709522614448,-0.999561,1.275));
#118 = DIRECTION('',(0.,0.,-1.));
#119 = DIRECTION('',(-2.203154661875E-06,-0.999999999998,-0.));
#120 = ORIENTED_EDGE('',*,*,#121,.T.);
#121 = EDGE_CURVE('',#113,#122,#124,.T.);
#122 = VERTEX_POINT('',#123);
#123 = CARTESIAN_POINT('',(-5.255951,-0.824561,1.275));
#124 = LINE('',#125,#126);
#125 = CARTESIAN_POINT('',(-5.709523,-0.824561,1.275));
#126 = VECTOR('',#127,1.);
#127 = DIRECTION('',(1.,0.,0.));
#128 = ORIENTED_EDGE('',*,*,#129,.T.);
#129 = EDGE_CURVE('',#122,#130,#132,.T.);
#130 = VERTEX_POINT('',#131);
#131 = CARTESIAN_POINT('',(-5.255951,0.673188,1.275));
#132 = LINE('',#133,#134);
#133 = CARTESIAN_POINT('',(-5.255951,-0.824561,1.275));
#134 = VECTOR('',#135,1.);
#135 = DIRECTION('',(0.,1.,0.));
#136 = ORIENTED_EDGE('',*,*,#137,.T.);
#137 = EDGE_CURVE('',#130,#138,#140,.T.);
#138 = VERTEX_POINT('',#139);
#139 = CARTESIAN_POINT('',(-5.402775,0.531121,1.275));
#140 = LINE('',#141,#142);
#141 = CARTESIAN_POINT('',(-5.255951,0.673188,1.275));
#142 = VECTOR('',#143,1.);
#143 = DIRECTION('',(-0.71865287489,-0.695368999462,0.));
#144 = ORIENTED_EDGE('',*,*,#145,.T.);
#145 = EDGE_CURVE('',#138,#146,#148,.T.);
#146 = VERTEX_POINT('',#147);
#147 = CARTESIAN_POINT('',(-5.631261,0.415341,1.275));
#148 = LINE('',#149,#150);
#149 = CARTESIAN_POINT('',(-5.402775,0.531121,1.275));
#150 = VECTOR('',#151,1.);
#151 = DIRECTION('',(-0.892014117051,-0.452007538633,0.));
#152 = ORIENTED_EDGE('',*,*,#153,.T.);
#153 = EDGE_CURVE('',#146,#154,#156,.T.);
#154 = VERTEX_POINT('',#155);
#155 = CARTESIAN_POINT('',(-5.816818,0.710114,1.275));
#156 = CIRCLE('',#157,0.174999682245);
#157 = AXIS2_PLACEMENT_3D('',#158,#159,#160);
#158 = CARTESIAN_POINT('',(-5.70952234953,0.571865918002,1.275));
#159 = DIRECTION('',(0.,0.,-1.));
#160 = DIRECTION('',(0.447208523616,-0.894429726924,0.));
#161 = ORIENTED_EDGE('',*,*,#162,.T.);
#162 = EDGE_CURVE('',#154,#163,#165,.T.);
#163 = VERTEX_POINT('',#164);
#164 = CARTESIAN_POINT('',(-5.603662,0.820452,1.275));
#165 = LINE('',#166,#167);
#166 = CARTESIAN_POINT('',(-5.816818,0.710114,1.275));
#167 = VECTOR('',#168,1.);
#168 = DIRECTION('',(0.888073263764,0.459701944947,0.));
#169 = ORIENTED_EDGE('',*,*,#170,.T.);
#170 = EDGE_CURVE('',#163,#171,#173,.T.);
#171 = VERTEX_POINT('',#172);
#172 = CARTESIAN_POINT('',(-5.426473,0.99764,1.275));
#173 = LINE('',#174,#175);
#174 = CARTESIAN_POINT('',(-5.603662,0.820452,1.275));
#175 = VECTOR('',#176,1.);
#176 = DIRECTION('',(0.707108776536,0.707104785832,0.));
#177 = ORIENTED_EDGE('',*,*,#178,.T.);
#178 = EDGE_CURVE('',#171,#44,#179,.T.);
#179 = LINE('',#180,#181);
#180 = CARTESIAN_POINT('',(-5.426473,0.99764,1.275));
#181 = VECTOR('',#182,1.);
#182 = DIRECTION('',(0.554780793795,0.831996556986,0.));
#183 = PLANE('',#184);
#184 = AXIS2_PLACEMENT_3D('',#185,#186,#187);
#185 = CARTESIAN_POINT('',(0.,0.,1.275));
#186 = DIRECTION('',(0.,0.,1.));
#187 = DIRECTION('',(1.,0.,-0.));
#188 = SHELL_BASED_SURFACE_MODEL('',(#189));
#189 = OPEN_SHELL('',(#190));
#190 = ADVANCED_FACE('',(#191),#429,.T.);
#191 = FACE_BOUND('',#192,.F.);
#192 = EDGE_LOOP('',(#193,#203,#211,#219,#227,#235,#243,#251,#259,#267,
    #275,#283,#291,#299,#307,#315,#324,#332,#341,#349,#357,#365,#374,
    #382,#390,#398,#407,#415,#423));
#193 = ORIENTED_EDGE('',*,*,#194,.T.);
#194 = EDGE_CURVE('',#195,#197,#199,.T.);
#195 = VERTEX_POINT('',#196);
#196 = CARTESIAN_POINT('',(-3.346221,1.369223,1.275));
#197 = VERTEX_POINT('',#198);
#198 = CARTESIAN_POINT('',(-3.299999,1.375438,1.275));
#199 = LINE('',#200,#201);
#200 = CARTESIAN_POINT('',(-3.346221,1.369223,1.275));
#201 = VECTOR('',#202,1.);
#202 = DIRECTION('',(0.991081040359,0.133260539696,0.));
#203 = ORIENTED_EDGE('',*,*,#204,.T.);
#204 = EDGE_CURVE('',#197,#205,#207,.T.);
#205 = VERTEX_POINT('',#206);
#206 = CARTESIAN_POINT('',(-2.77619,1.375438,1.275));
#207 = LINE('',#208,#209);
#208 = CARTESIAN_POINT('',(-3.299999,1.375438,1.275));
#209 = VECTOR('',#210,1.);
#210 = DIRECTION('',(1.,0.,0.));
#211 = ORIENTED_EDGE('',*,*,#212,.T.);
#212 = EDGE_CURVE('',#205,#213,#215,.T.);
#213 = VERTEX_POINT('',#214);
#214 = CARTESIAN_POINT('',(-2.742049,1.372075,1.275));
#215 = LINE('',#216,#217);
#216 = CARTESIAN_POINT('',(-2.77619,1.375438,1.275));
#217 = VECTOR('',#218,1.);
#218 = DIRECTION('',(0.995183575046,-9.802883228026E-02,0.));
#219 = ORIENTED_EDGE('',*,*,#220,.T.);
#220 = EDGE_CURVE('',#213,#221,#223,.T.);
#221 = VERTEX_POINT('',#222);
#222 = CARTESIAN_POINT('',(-2.697928,1.356963,1.275));
#223 = LINE('',#224,#225);
#224 = CARTESIAN_POINT('',(-2.742049,1.372075,1.275));
#225 = VECTOR('',#226,1.);
#226 = DIRECTION('',(0.946045890925,-0.3240326716,0.));
#227 = ORIENTED_EDGE('',*,*,#228,.T.);
#228 = EDGE_CURVE('',#221,#229,#231,.T.);
#229 = VERTEX_POINT('',#230);
#230 = CARTESIAN_POINT('',(-2.459371,1.233924,1.275));
#231 = LINE('',#232,#233);
#232 = CARTESIAN_POINT('',(-2.697928,1.356963,1.275));
#233 = VECTOR('',#234,1.);
#234 = DIRECTION('',(0.888753012834,-0.458386389609,0.));
#235 = ORIENTED_EDGE('',*,*,#236,.T.);
#236 = EDGE_CURVE('',#229,#237,#239,.T.);
#237 = VERTEX_POINT('',#238);
#238 = CARTESIAN_POINT('',(-2.320343,1.092947,1.275));
#239 = LINE('',#240,#241);
#240 = CARTESIAN_POINT('',(-2.459371,1.233924,1.275));
#241 = VECTOR('',#242,1.);
#242 = DIRECTION('',(0.702167891058,-0.712011413368,0.));
#243 = ORIENTED_EDGE('',*,*,#244,.T.);
#244 = EDGE_CURVE('',#237,#245,#247,.T.);
#245 = VERTEX_POINT('',#246);
#246 = CARTESIAN_POINT('',(-2.200617,0.859652,1.275));
#247 = LINE('',#248,#249);
#248 = CARTESIAN_POINT('',(-2.320343,1.092947,1.275));
#249 = VECTOR('',#250,1.);
#250 = DIRECTION('',(0.456580947491,-0.889681874823,0.));
#251 = ORIENTED_EDGE('',*,*,#252,.T.);
#252 = EDGE_CURVE('',#245,#253,#255,.T.);
#253 = VERTEX_POINT('',#254);
#254 = CARTESIAN_POINT('',(-2.185505,0.815531,1.275));
#255 = LINE('',#256,#257);
#256 = CARTESIAN_POINT('',(-2.200617,0.859652,1.275));
#257 = VECTOR('',#258,1.);
#258 = DIRECTION('',(0.3240326716,-0.946045890925,0.));
#259 = ORIENTED_EDGE('',*,*,#260,.T.);
#260 = EDGE_CURVE('',#253,#261,#263,.T.);
#261 = VERTEX_POINT('',#262);
#262 = CARTESIAN_POINT('',(-2.182142,0.571866,1.275));
#263 = LINE('',#264,#265);
#264 = CARTESIAN_POINT('',(-2.185505,0.815531,1.275));
#265 = VECTOR('',#266,1.);
#266 = DIRECTION('',(1.380042164579E-02,-0.999904769647,0.));
#267 = ORIENTED_EDGE('',*,*,#268,.T.);
#268 = EDGE_CURVE('',#261,#269,#271,.T.);
#269 = VERTEX_POINT('',#270);
#270 = CARTESIAN_POINT('',(-2.191122,0.516527,1.275));
#271 = LINE('',#272,#273);
#272 = CARTESIAN_POINT('',(-2.182142,0.571866,1.275));
#273 = VECTOR('',#274,1.);
#274 = DIRECTION('',(-0.160177317043,-0.987088256999,0.));
#275 = ORIENTED_EDGE('',*,*,#276,.T.);
#276 = EDGE_CURVE('',#269,#277,#279,.T.);
#277 = VERTEX_POINT('',#278);
#278 = CARTESIAN_POINT('',(-2.295884,0.20224,1.275));
#279 = LINE('',#280,#281);
#280 = CARTESIAN_POINT('',(-2.191122,0.516527,1.275));
#281 = VECTOR('',#282,1.);
#282 = DIRECTION('',(-0.316226860459,-0.948683599903,0.));
#283 = ORIENTED_EDGE('',*,*,#284,.T.);
#284 = EDGE_CURVE('',#277,#285,#287,.T.);
#285 = VERTEX_POINT('',#286);
#286 = CARTESIAN_POINT('',(-2.316397,0.160355,1.275));
#287 = LINE('',#288,#289);
#288 = CARTESIAN_POINT('',(-2.295884,0.20224,1.275));
#289 = VECTOR('',#290,1.);
#290 = DIRECTION('',(-0.43983109788,-0.898080511612,0.));
#291 = ORIENTED_EDGE('',*,*,#292,.T.);
#292 = EDGE_CURVE('',#285,#293,#295,.T.);
#293 = VERTEX_POINT('',#294);
#294 = CARTESIAN_POINT('',(-2.338161,0.133836,1.275));
#295 = LINE('',#296,#297);
#296 = CARTESIAN_POINT('',(-2.316397,0.160355,1.275));
#297 = VECTOR('',#298,1.);
#298 = DIRECTION('',(-0.634400584775,-0.773004461848,0.));
#299 = ORIENTED_EDGE('',*,*,#300,.T.);
#300 = EDGE_CURVE('',#293,#301,#303,.T.);
#301 = VERTEX_POINT('',#302);
#302 = CARTESIAN_POINT('',(-3.296559,-0.824561,1.275));
#303 = LINE('',#304,#305);
#304 = CARTESIAN_POINT('',(-2.338161,0.133836,1.275));
#305 = VECTOR('',#306,1.);
#306 = DIRECTION('',(-0.707107150087,-0.707106412286,0.));
#307 = ORIENTED_EDGE('',*,*,#308,.T.);
#308 = EDGE_CURVE('',#301,#309,#311,.T.);
#309 = VERTEX_POINT('',#310);
#310 = CARTESIAN_POINT('',(-2.357142,-0.824561,1.275));
#311 = LINE('',#312,#313);
#312 = CARTESIAN_POINT('',(-3.296559,-0.824561,1.275));
#313 = VECTOR('',#314,1.);
#314 = DIRECTION('',(1.,0.,0.));
#315 = ORIENTED_EDGE('',*,*,#316,.T.);
#316 = EDGE_CURVE('',#309,#317,#319,.T.);
#317 = VERTEX_POINT('',#318);
#318 = CARTESIAN_POINT('',(-2.357142,-1.174561,1.275));
#319 = CIRCLE('',#320,0.175);
#320 = AXIS2_PLACEMENT_3D('',#321,#322,#323);
#321 = CARTESIAN_POINT('',(-2.357142385552,-0.999561,1.275));
#322 = DIRECTION('',(0.,0.,-1.));
#323 = DIRECTION('',(2.203154664413E-06,0.999999999998,0.));
#324 = ORIENTED_EDGE('',*,*,#325,.T.);
#325 = EDGE_CURVE('',#317,#326,#328,.T.);
#326 = VERTEX_POINT('',#327);
#327 = CARTESIAN_POINT('',(-3.719047,-1.174561,1.275));
#328 = LINE('',#329,#330);
#329 = CARTESIAN_POINT('',(-2.357142,-1.174561,1.275));
#330 = VECTOR('',#331,1.);
#331 = DIRECTION('',(-1.,0.,0.));
#332 = ORIENTED_EDGE('',*,*,#333,.T.);
#333 = EDGE_CURVE('',#326,#334,#336,.T.);
#334 = VERTEX_POINT('',#335);
#335 = CARTESIAN_POINT('',(-3.842791,-0.875817,1.275));
#336 = CIRCLE('',#337,0.175000355876);
#337 = AXIS2_PLACEMENT_3D('',#338,#339,#340);
#338 = CARTESIAN_POINT('',(-3.719046767425,-0.999560644124,1.275));
#339 = DIRECTION('',(0.,0.,-1.));
#340 = DIRECTION('',(-1.328994778342E-06,-0.999999999999,-0.));
#341 = ORIENTED_EDGE('',*,*,#342,.T.);
#342 = EDGE_CURVE('',#334,#343,#345,.T.);
#343 = VERTEX_POINT('',#344);
#344 = CARTESIAN_POINT('',(-2.614859,0.352112,1.275));
#345 = LINE('',#346,#347);
#346 = CARTESIAN_POINT('',(-3.842791,-0.875817,1.275));
#347 = VECTOR('',#348,1.);
#348 = DIRECTION('',(0.707107644965,0.707105917407,0.));
#349 = ORIENTED_EDGE('',*,*,#350,.T.);
#350 = EDGE_CURVE('',#343,#351,#353,.T.);
#351 = VERTEX_POINT('',#352);
#352 = CARTESIAN_POINT('',(-2.532142,0.600263,1.275));
#353 = LINE('',#354,#355);
#354 = CARTESIAN_POINT('',(-2.614859,0.352112,1.275));
#355 = VECTOR('',#356,1.);
#356 = DIRECTION('',(0.316227766017,0.948683298051,0.));
#357 = ORIENTED_EDGE('',*,*,#358,.T.);
#358 = EDGE_CURVE('',#351,#359,#361,.T.);
#359 = VERTEX_POINT('',#360);
#360 = CARTESIAN_POINT('',(-2.532142,0.740078,1.275));
#361 = LINE('',#362,#363);
#362 = CARTESIAN_POINT('',(-2.532142,0.600263,1.275));
#363 = VECTOR('',#364,1.);
#364 = DIRECTION('',(0.,1.,0.));
#365 = ORIENTED_EDGE('',*,*,#366,.T.);
#366 = EDGE_CURVE('',#359,#367,#369,.T.);
#367 = VERTEX_POINT('',#368);
#368 = CARTESIAN_POINT('',(-2.817502,1.025438,1.275));
#369 = CIRCLE('',#370,0.39982543197);
#370 = AXIS2_PLACEMENT_3D('',#371,#372,#373);
#371 = CARTESIAN_POINT('',(-2.918897,0.638683,1.275));
#372 = DIRECTION('',(0.,0.,1.));
#373 = DIRECTION('',(0.967309653351,0.253598175335,-0.));
#374 = ORIENTED_EDGE('',*,*,#375,.T.);
#375 = EDGE_CURVE('',#367,#376,#378,.T.);
#376 = VERTEX_POINT('',#377);
#377 = CARTESIAN_POINT('',(-3.258687,1.025438,1.275));
#378 = LINE('',#379,#380);
#379 = CARTESIAN_POINT('',(-2.817502,1.025438,1.275));
#380 = VECTOR('',#381,1.);
#381 = DIRECTION('',(-1.,0.,0.));
#382 = ORIENTED_EDGE('',*,*,#383,.T.);
#383 = EDGE_CURVE('',#376,#384,#386,.T.);
#384 = VERTEX_POINT('',#385);
#385 = CARTESIAN_POINT('',(-3.405859,0.951852,1.275));
#386 = LINE('',#387,#388);
#387 = CARTESIAN_POINT('',(-3.258687,1.025438,1.275));
#388 = VECTOR('',#389,1.);
#389 = DIRECTION('',(-0.894427191,-0.4472135955,0.));
#390 = ORIENTED_EDGE('',*,*,#391,.T.);
#391 = EDGE_CURVE('',#384,#392,#394,.T.);
#392 = VERTEX_POINT('',#393);
#393 = CARTESIAN_POINT('',(-3.517061,0.845407,1.275));
#394 = LINE('',#395,#396);
#395 = CARTESIAN_POINT('',(-3.405859,0.951852,1.275));
#396 = VECTOR('',#397,1.);
#397 = DIRECTION('',(-0.722389130868,-0.691486763145,0.));
#398 = ORIENTED_EDGE('',*,*,#399,.T.);
#399 = EDGE_CURVE('',#392,#400,#402,.T.);
#400 = VERTEX_POINT('',#401);
#401 = CARTESIAN_POINT('',(-3.759792,1.088138,1.275));
#402 = CIRCLE('',#403,0.174999409213);
#403 = AXIS2_PLACEMENT_3D('',#404,#405,#406);
#404 = CARTESIAN_POINT('',(-3.614285,0.990914,1.275));
#405 = DIRECTION('',(0.,0.,-1.));
#406 = DIRECTION('',(0.55556758984,-0.831471378413,0.));
#407 = ORIENTED_EDGE('',*,*,#408,.T.);
#408 = EDGE_CURVE('',#400,#409,#411,.T.);
#409 = VERTEX_POINT('',#410);
#410 = CARTESIAN_POINT('',(-3.633267,1.21942,1.275));
#411 = LINE('',#412,#413);
#412 = CARTESIAN_POINT('',(-3.759792,1.088138,1.275));
#413 = VECTOR('',#414,1.);
#414 = DIRECTION('',(0.693941274559,0.720031601712,0.));
#415 = ORIENTED_EDGE('',*,*,#416,.T.);
#416 = EDGE_CURVE('',#409,#417,#419,.T.);
#417 = VERTEX_POINT('',#418);
#418 = CARTESIAN_POINT('',(-3.587785,1.252201,1.275));
#419 = LINE('',#420,#421);
#420 = CARTESIAN_POINT('',(-3.633267,1.21942,1.275));
#421 = VECTOR('',#422,1.);
#422 = DIRECTION('',(0.811247014893,0.58470358373,0.));
#423 = ORIENTED_EDGE('',*,*,#424,.T.);
#424 = EDGE_CURVE('',#417,#195,#425,.T.);
#425 = LINE('',#426,#427);
#426 = CARTESIAN_POINT('',(-3.587785,1.252201,1.275));
#427 = VECTOR('',#428,1.);
#428 = DIRECTION('',(0.899960220371,0.435972019458,0.));
#429 = PLANE('',#430);
#430 = AXIS2_PLACEMENT_3D('',#431,#432,#433);
#431 = CARTESIAN_POINT('',(0.,0.,1.275));
#432 = DIRECTION('',(0.,0.,1.));
#433 = DIRECTION('',(1.,0.,-0.));
#434 = SHELL_BASED_SURFACE_MODEL('',(#435));
#435 = OPEN_SHELL('',(#436));
#436 = ADVANCED_FACE('',(#437,#823,#893),#978,.T.);
#437 = FACE_BOUND('',#438,.F.);
#438 = EDGE_LOOP('',(#439,#449,#457,#465,#473,#481,#489,#497,#505,#513,
    #521,#529,#537,#545,#553,#561,#569,#577,#585,#593,#601,#609,#617,
    #625,#633,#641,#649,#657,#665,#673,#681,#689,#697,#705,#713,#721,
    #729,#737,#745,#753,#761,#769,#777,#785,#793,#801,#809,#817));
#439 = ORIENTED_EDGE('',*,*,#440,.T.);
#440 = EDGE_CURVE('',#441,#443,#445,.T.);
#441 = VERTEX_POINT('',#442);
#442 = CARTESIAN_POINT('',(-1.13414,1.372075,1.275));
#443 = VERTEX_POINT('',#444);
#444 = CARTESIAN_POINT('',(-1.099999,1.375438,1.275));
#445 = LINE('',#446,#447);
#446 = CARTESIAN_POINT('',(-1.13414,1.372075,1.275));
#447 = VECTOR('',#448,1.);
#448 = DIRECTION('',(0.995183575046,9.802883228026E-02,0.));
#449 = ORIENTED_EDGE('',*,*,#450,.T.);
#450 = EDGE_CURVE('',#443,#451,#453,.T.);
#451 = VERTEX_POINT('',#452);
#452 = CARTESIAN_POINT('',(-0.680952,1.375438,1.275));
#453 = LINE('',#454,#455);
#454 = CARTESIAN_POINT('',(-1.099999,1.375438,1.275));
#455 = VECTOR('',#456,1.);
#456 = DIRECTION('',(1.,0.,0.));
#457 = ORIENTED_EDGE('',*,*,#458,.T.);
#458 = EDGE_CURVE('',#451,#459,#461,.T.);
#459 = VERTEX_POINT('',#460);
#460 = CARTESIAN_POINT('',(-0.646811,1.372075,1.275));
#461 = LINE('',#462,#463);
#462 = CARTESIAN_POINT('',(-0.680952,1.375438,1.275));
#463 = VECTOR('',#464,1.);
#464 = DIRECTION('',(0.995183575046,-9.802883228026E-02,0.));
#465 = ORIENTED_EDGE('',*,*,#466,.T.);
#466 = EDGE_CURVE('',#459,#467,#469,.T.);
#467 = VERTEX_POINT('',#468);
#468 = CARTESIAN_POINT('',(-0.60269,1.356963,1.275));
#469 = LINE('',#470,#471);
#470 = CARTESIAN_POINT('',(-0.646811,1.372075,1.275));
#471 = VECTOR('',#472,1.);
#472 = DIRECTION('',(0.946045890925,-0.3240326716,0.));
#473 = ORIENTED_EDGE('',*,*,#474,.T.);
#474 = EDGE_CURVE('',#467,#475,#477,.T.);
#475 = VERTEX_POINT('',#476);
#476 = CARTESIAN_POINT('',(-0.364133,1.233924,1.275));
#477 = LINE('',#478,#479);
#478 = CARTESIAN_POINT('',(-0.60269,1.356963,1.275));
#479 = VECTOR('',#480,1.);
#480 = DIRECTION('',(0.888753012834,-0.458386389609,0.));
#481 = ORIENTED_EDGE('',*,*,#482,.T.);
#482 = EDGE_CURVE('',#475,#483,#485,.T.);
#483 = VERTEX_POINT('',#484);
#484 = CARTESIAN_POINT('',(-0.225105,1.092947,1.275));
#485 = LINE('',#486,#487);
#486 = CARTESIAN_POINT('',(-0.364133,1.233924,1.275));
#487 = VECTOR('',#488,1.);
#488 = DIRECTION('',(0.702167891058,-0.712011413368,0.));
#489 = ORIENTED_EDGE('',*,*,#490,.T.);
#490 = EDGE_CURVE('',#483,#491,#493,.T.);
#491 = VERTEX_POINT('',#492);
#492 = CARTESIAN_POINT('',(-0.105379,0.859652,1.275));
#493 = LINE('',#494,#495);
#494 = CARTESIAN_POINT('',(-0.225105,1.092947,1.275));
#495 = VECTOR('',#496,1.);
#496 = DIRECTION('',(0.456580947491,-0.889681874823,0.));
#497 = ORIENTED_EDGE('',*,*,#498,.T.);
#498 = EDGE_CURVE('',#491,#499,#501,.T.);
#499 = VERTEX_POINT('',#500);
#500 = CARTESIAN_POINT('',(-9.0267E-02,0.815531,1.275));
#501 = LINE('',#502,#503);
#502 = CARTESIAN_POINT('',(-0.105379,0.859652,1.275));
#503 = VECTOR('',#504,1.);
#504 = DIRECTION('',(0.3240326716,-0.946045890925,0.));
#505 = ORIENTED_EDGE('',*,*,#506,.T.);
#506 = EDGE_CURVE('',#499,#507,#509,.T.);
#507 = VERTEX_POINT('',#508);
#508 = CARTESIAN_POINT('',(-8.6904E-02,0.676628,1.275));
#509 = LINE('',#510,#511);
#510 = CARTESIAN_POINT('',(-9.0267E-02,0.815531,1.275));
#511 = VECTOR('',#512,1.);
#512 = DIRECTION('',(2.420404723162E-02,-0.999707039136,0.));
#513 = ORIENTED_EDGE('',*,*,#514,.T.);
#514 = EDGE_CURVE('',#507,#515,#517,.T.);
#515 = VERTEX_POINT('',#516);
#516 = CARTESIAN_POINT('',(-9.3119E-02,0.630406,1.275));
#517 = LINE('',#518,#519);
#518 = CARTESIAN_POINT('',(-8.6904E-02,0.676628,1.275));
#519 = VECTOR('',#520,1.);
#520 = DIRECTION('',(-0.133260539696,-0.991081040359,0.));
#521 = ORIENTED_EDGE('',*,*,#522,.T.);
#522 = EDGE_CURVE('',#515,#523,#525,.T.);
#523 = VERTEX_POINT('',#524);
#524 = CARTESIAN_POINT('',(-0.210141,0.388842,1.275));
#525 = LINE('',#526,#527);
#526 = CARTESIAN_POINT('',(-9.3119E-02,0.630406,1.275));
#527 = VECTOR('',#528,1.);
#528 = DIRECTION('',(-0.435972019458,-0.899960220371,0.));
#529 = ORIENTED_EDGE('',*,*,#530,.T.);
#530 = EDGE_CURVE('',#523,#531,#533,.T.);
#531 = VERTEX_POINT('',#532);
#532 = CARTESIAN_POINT('',(-0.242922,0.34336,1.275));
#533 = LINE('',#534,#535);
#534 = CARTESIAN_POINT('',(-0.210141,0.388842,1.275));
#535 = VECTOR('',#536,1.);
#536 = DIRECTION('',(-0.58470358373,-0.811247014893,0.));
#537 = ORIENTED_EDGE('',*,*,#538,.T.);
#538 = EDGE_CURVE('',#531,#539,#541,.T.);
#539 = VERTEX_POINT('',#540);
#540 = CARTESIAN_POINT('',(-0.328701,0.25758,1.275));
#541 = LINE('',#542,#543);
#542 = CARTESIAN_POINT('',(-0.242922,0.34336,1.275));
#543 = VECTOR('',#544,1.);
#544 = DIRECTION('',(-0.707102659521,-0.707110902828,0.));
#545 = ORIENTED_EDGE('',*,*,#546,.T.);
#546 = EDGE_CURVE('',#539,#547,#549,.T.);
#547 = VERTEX_POINT('',#548);
#548 = CARTESIAN_POINT('',(-0.221159,0.145281,1.275));
#549 = LINE('',#550,#551);
#550 = CARTESIAN_POINT('',(-0.328701,0.25758,1.275));
#551 = VECTOR('',#552,1.);
#552 = DIRECTION('',(0.69164424442,-0.722238353426,0.));
#553 = ORIENTED_EDGE('',*,*,#554,.T.);
#554 = EDGE_CURVE('',#547,#555,#557,.T.);
#555 = VERTEX_POINT('',#556);
#556 = CARTESIAN_POINT('',(-0.105379,-8.3203E-02,1.275));
#557 = LINE('',#558,#559);
#558 = CARTESIAN_POINT('',(-0.221159,0.145281,1.275));
#559 = VECTOR('',#560,1.);
#560 = DIRECTION('',(0.452010686832,-0.892012521767,0.));
#561 = ORIENTED_EDGE('',*,*,#562,.T.);
#562 = EDGE_CURVE('',#555,#563,#565,.T.);
#563 = VERTEX_POINT('',#564);
#564 = CARTESIAN_POINT('',(-9.0267E-02,-0.127325,1.275));
#565 = LINE('',#566,#567);
#566 = CARTESIAN_POINT('',(-0.105379,-8.3203E-02,1.275));
#567 = VECTOR('',#568,1.);
#568 = DIRECTION('',(0.324026098661,-0.946048142214,0.));
#569 = ORIENTED_EDGE('',*,*,#570,.T.);
#570 = EDGE_CURVE('',#563,#571,#573,.T.);
#571 = VERTEX_POINT('',#572);
#572 = CARTESIAN_POINT('',(-8.6904E-02,-0.161466,1.275));
#573 = LINE('',#574,#575);
#574 = CARTESIAN_POINT('',(-9.0267E-02,-0.127325,1.275));
#575 = VECTOR('',#576,1.);
#576 = DIRECTION('',(9.802883228026E-02,-0.995183575046,0.));
#577 = ORIENTED_EDGE('',*,*,#578,.T.);
#578 = EDGE_CURVE('',#571,#579,#581,.T.);
#579 = VERTEX_POINT('',#580);
#580 = CARTESIAN_POINT('',(-8.6904E-02,-0.580514,1.275));
#581 = LINE('',#582,#583);
#582 = CARTESIAN_POINT('',(-8.6904E-02,-0.161466,1.275));
#583 = VECTOR('',#584,1.);
#584 = DIRECTION('',(0.,-1.,0.));
#585 = ORIENTED_EDGE('',*,*,#586,.T.);
#586 = EDGE_CURVE('',#579,#587,#589,.T.);
#587 = VERTEX_POINT('',#588);
#588 = CARTESIAN_POINT('',(-9.3119E-02,-0.626736,1.275));
#589 = LINE('',#590,#591);
#590 = CARTESIAN_POINT('',(-8.6904E-02,-0.580514,1.275));
#591 = VECTOR('',#592,1.);
#592 = DIRECTION('',(-0.133260539696,-0.991081040359,0.));
#593 = ORIENTED_EDGE('',*,*,#594,.T.);
#594 = EDGE_CURVE('',#587,#595,#597,.T.);
#595 = VERTEX_POINT('',#596);
#596 = CARTESIAN_POINT('',(-0.210141,-0.8683,1.275));
#597 = LINE('',#598,#599);
#598 = CARTESIAN_POINT('',(-9.3119E-02,-0.626736,1.275));
#599 = VECTOR('',#600,1.);
#600 = DIRECTION('',(-0.435972019458,-0.899960220371,0.));
#601 = ORIENTED_EDGE('',*,*,#602,.T.);
#602 = EDGE_CURVE('',#595,#603,#605,.T.);
#603 = VERTEX_POINT('',#604);
#604 = CARTESIAN_POINT('',(-0.242922,-0.913782,1.275));
#605 = LINE('',#606,#607);
#606 = CARTESIAN_POINT('',(-0.210141,-0.8683,1.275));
#607 = VECTOR('',#608,1.);
#608 = DIRECTION('',(-0.58470358373,-0.811247014893,0.));
#609 = ORIENTED_EDGE('',*,*,#610,.T.);
#610 = EDGE_CURVE('',#603,#611,#613,.T.);
#611 = VERTEX_POINT('',#612);
#612 = CARTESIAN_POINT('',(-0.374204,-1.040307,1.275));
#613 = LINE('',#614,#615);
#614 = CARTESIAN_POINT('',(-0.242922,-0.913782,1.275));
#615 = VECTOR('',#616,1.);
#616 = DIRECTION('',(-0.720031601712,-0.693941274559,0.));
#617 = ORIENTED_EDGE('',*,*,#618,.T.);
#618 = EDGE_CURVE('',#611,#619,#621,.T.);
#619 = VERTEX_POINT('',#620);
#620 = CARTESIAN_POINT('',(-0.60269,-1.156086,1.275));
#621 = LINE('',#622,#623);
#622 = CARTESIAN_POINT('',(-0.374204,-1.040307,1.275));
#623 = VECTOR('',#624,1.);
#624 = DIRECTION('',(-0.892015691138,-0.452004432238,0.));
#625 = ORIENTED_EDGE('',*,*,#626,.T.);
#626 = EDGE_CURVE('',#619,#627,#629,.T.);
#627 = VERTEX_POINT('',#628);
#628 = CARTESIAN_POINT('',(-0.646811,-1.171198,1.275));
#629 = LINE('',#630,#631);
#630 = CARTESIAN_POINT('',(-0.60269,-1.156086,1.275));
#631 = VECTOR('',#632,1.);
#632 = DIRECTION('',(-0.946045890925,-0.3240326716,0.));
#633 = ORIENTED_EDGE('',*,*,#634,.T.);
#634 = EDGE_CURVE('',#627,#635,#637,.T.);
#635 = VERTEX_POINT('',#636);
#636 = CARTESIAN_POINT('',(-0.680952,-1.174561,1.275));
#637 = LINE('',#638,#639);
#638 = CARTESIAN_POINT('',(-0.646811,-1.171198,1.275));
#639 = VECTOR('',#640,1.);
#640 = DIRECTION('',(-0.995183575046,-9.802883228026E-02,0.));
#641 = ORIENTED_EDGE('',*,*,#642,.T.);
#642 = EDGE_CURVE('',#635,#643,#645,.T.);
#643 = VERTEX_POINT('',#644);
#644 = CARTESIAN_POINT('',(-1.099999,-1.174561,1.275));
#645 = LINE('',#646,#647);
#646 = CARTESIAN_POINT('',(-0.680952,-1.174561,1.275));
#647 = VECTOR('',#648,1.);
#648 = DIRECTION('',(-1.,0.,0.));
#649 = ORIENTED_EDGE('',*,*,#650,.T.);
#650 = EDGE_CURVE('',#643,#651,#653,.T.);
#651 = VERTEX_POINT('',#652);
#652 = CARTESIAN_POINT('',(-1.14622,-1.168347,1.275));
#653 = LINE('',#654,#655);
#654 = CARTESIAN_POINT('',(-1.099999,-1.174561,1.275));
#655 = VECTOR('',#656,1.);
#656 = DIRECTION('',(-0.991083491336,0.133242310101,0.));
#657 = ORIENTED_EDGE('',*,*,#658,.T.);
#658 = EDGE_CURVE('',#651,#659,#661,.T.);
#659 = VERTEX_POINT('',#660);
#660 = CARTESIAN_POINT('',(-1.387785,-1.051325,1.275));
#661 = LINE('',#662,#663);
#662 = CARTESIAN_POINT('',(-1.14622,-1.168347,1.275));
#663 = VECTOR('',#664,1.);
#664 = DIRECTION('',(-0.89996092849,0.435970557712,0.));
#665 = ORIENTED_EDGE('',*,*,#666,.T.);
#666 = EDGE_CURVE('',#659,#667,#669,.T.);
#667 = VERTEX_POINT('',#668);
#668 = CARTESIAN_POINT('',(-1.433267,-1.018544,1.275));
#669 = LINE('',#670,#671);
#670 = CARTESIAN_POINT('',(-1.387785,-1.051325,1.275));
#671 = VECTOR('',#672,1.);
#672 = DIRECTION('',(-0.811247014893,0.58470358373,0.));
#673 = ORIENTED_EDGE('',*,*,#674,.T.);
#674 = EDGE_CURVE('',#667,#675,#677,.T.);
#675 = VERTEX_POINT('',#676);
#676 = CARTESIAN_POINT('',(-1.559792,-0.887262,1.275));
#677 = LINE('',#678,#679);
#678 = CARTESIAN_POINT('',(-1.433267,-1.018544,1.275));
#679 = VECTOR('',#680,1.);
#680 = DIRECTION('',(-0.693941274559,0.720031601712,0.));
#681 = ORIENTED_EDGE('',*,*,#682,.T.);
#682 = EDGE_CURVE('',#675,#683,#685,.T.);
#683 = VERTEX_POINT('',#684);
#684 = CARTESIAN_POINT('',(-1.675572,-0.658776,1.275));
#685 = LINE('',#686,#687);
#686 = CARTESIAN_POINT('',(-1.559792,-0.887262,1.275));
#687 = VECTOR('',#688,1.);
#688 = DIRECTION('',(-0.452007538633,0.892014117051,0.));
#689 = ORIENTED_EDGE('',*,*,#690,.T.);
#690 = EDGE_CURVE('',#683,#691,#693,.T.);
#691 = VERTEX_POINT('',#692);
#692 = CARTESIAN_POINT('',(-1.690684,-0.614655,1.275));
#693 = LINE('',#694,#695);
#694 = CARTESIAN_POINT('',(-1.675572,-0.658776,1.275));
#695 = VECTOR('',#696,1.);
#696 = DIRECTION('',(-0.3240326716,0.946045890925,0.));
#697 = ORIENTED_EDGE('',*,*,#698,.T.);
#698 = EDGE_CURVE('',#691,#699,#701,.T.);
#699 = VERTEX_POINT('',#700);
#700 = CARTESIAN_POINT('',(-1.694047,-0.580514,1.275));
#701 = LINE('',#702,#703);
#702 = CARTESIAN_POINT('',(-1.690684,-0.614655,1.275));
#703 = VECTOR('',#704,1.);
#704 = DIRECTION('',(-9.802883228026E-02,0.995183575046,0.));
#705 = ORIENTED_EDGE('',*,*,#706,.T.);
#706 = EDGE_CURVE('',#699,#707,#709,.T.);
#707 = VERTEX_POINT('',#708);
#708 = CARTESIAN_POINT('',(-1.694047,-0.161466,1.275));
#709 = LINE('',#710,#711);
#710 = CARTESIAN_POINT('',(-1.694047,-0.580514,1.275));
#711 = VECTOR('',#712,1.);
#712 = DIRECTION('',(0.,1.,0.));
#713 = ORIENTED_EDGE('',*,*,#714,.T.);
#714 = EDGE_CURVE('',#707,#715,#717,.T.);
#715 = VERTEX_POINT('',#716);
#716 = CARTESIAN_POINT('',(-1.687832,-0.115244,1.275));
#717 = LINE('',#718,#719);
#718 = CARTESIAN_POINT('',(-1.694047,-0.161466,1.275));
#719 = VECTOR('',#720,1.);
#720 = DIRECTION('',(0.133260539696,0.991081040359,0.));
#721 = ORIENTED_EDGE('',*,*,#722,.T.);
#722 = EDGE_CURVE('',#715,#723,#725,.T.);
#723 = VERTEX_POINT('',#724);
#724 = CARTESIAN_POINT('',(-1.57081,0.12632,1.275));
#725 = LINE('',#726,#727);
#726 = CARTESIAN_POINT('',(-1.687832,-0.115244,1.275));
#727 = VECTOR('',#728,1.);
#728 = DIRECTION('',(0.435972019458,0.899960220371,0.));
#729 = ORIENTED_EDGE('',*,*,#730,.T.);
#730 = EDGE_CURVE('',#723,#731,#733,.T.);
#731 = VERTEX_POINT('',#732);
#732 = CARTESIAN_POINT('',(-1.538029,0.171801,1.275));
#733 = LINE('',#734,#735);
#734 = CARTESIAN_POINT('',(-1.57081,0.12632,1.275));
#735 = VECTOR('',#736,1.);
#736 = DIRECTION('',(0.584712044445,0.811240916794,0.));
#737 = ORIENTED_EDGE('',*,*,#738,.T.);
#738 = EDGE_CURVE('',#731,#739,#741,.T.);
#739 = VERTEX_POINT('',#740);
#740 = CARTESIAN_POINT('',(-1.452249,0.25758,1.275));
#741 = LINE('',#742,#743);
#742 = CARTESIAN_POINT('',(-1.538029,0.171801,1.275));
#743 = VECTOR('',#744,1.);
#744 = DIRECTION('',(0.707110902828,0.707102659521,0.));
#745 = ORIENTED_EDGE('',*,*,#746,.T.);
#746 = EDGE_CURVE('',#739,#747,#749,.T.);
#747 = VERTEX_POINT('',#748);
#748 = CARTESIAN_POINT('',(-1.559792,0.36988,1.275));
#749 = LINE('',#750,#751);
#750 = CARTESIAN_POINT('',(-1.452249,0.25758,1.275));
#751 = VECTOR('',#752,1.);
#752 = DIRECTION('',(-0.691644386529,0.722238217338,0.));
#753 = ORIENTED_EDGE('',*,*,#754,.T.);
#754 = EDGE_CURVE('',#747,#755,#757,.T.);
#755 = VERTEX_POINT('',#756);
#756 = CARTESIAN_POINT('',(-1.675572,0.598366,1.275));
#757 = LINE('',#758,#759);
#758 = CARTESIAN_POINT('',(-1.559792,0.36988,1.275));
#759 = VECTOR('',#760,1.);
#760 = DIRECTION('',(-0.452007538633,0.892014117051,0.));
#761 = ORIENTED_EDGE('',*,*,#762,.T.);
#762 = EDGE_CURVE('',#755,#763,#765,.T.);
#763 = VERTEX_POINT('',#764);
#764 = CARTESIAN_POINT('',(-1.690684,0.642487,1.275));
#765 = LINE('',#766,#767);
#766 = CARTESIAN_POINT('',(-1.675572,0.598366,1.275));
#767 = VECTOR('',#768,1.);
#768 = DIRECTION('',(-0.3240326716,0.946045890925,0.));
#769 = ORIENTED_EDGE('',*,*,#770,.T.);
#770 = EDGE_CURVE('',#763,#771,#773,.T.);
#771 = VERTEX_POINT('',#772);
#772 = CARTESIAN_POINT('',(-1.694047,0.78139,1.275));
#773 = LINE('',#774,#775);
#774 = CARTESIAN_POINT('',(-1.690684,0.642487,1.275));
#775 = VECTOR('',#776,1.);
#776 = DIRECTION('',(-2.420404723162E-02,0.999707039136,0.));
#777 = ORIENTED_EDGE('',*,*,#778,.T.);
#778 = EDGE_CURVE('',#771,#779,#781,.T.);
#779 = VERTEX_POINT('',#780);
#780 = CARTESIAN_POINT('',(-1.687832,0.827612,1.275));
#781 = LINE('',#782,#783);
#782 = CARTESIAN_POINT('',(-1.694047,0.78139,1.275));
#783 = VECTOR('',#784,1.);
#784 = DIRECTION('',(0.133260539696,0.991081040359,0.));
#785 = ORIENTED_EDGE('',*,*,#786,.T.);
#786 = EDGE_CURVE('',#779,#787,#789,.T.);
#787 = VERTEX_POINT('',#788);
#788 = CARTESIAN_POINT('',(-1.57081,1.069176,1.275));
#789 = LINE('',#790,#791);
#790 = CARTESIAN_POINT('',(-1.687832,0.827612,1.275));
#791 = VECTOR('',#792,1.);
#792 = DIRECTION('',(0.435972019458,0.899960220371,0.));
#793 = ORIENTED_EDGE('',*,*,#794,.T.);
#794 = EDGE_CURVE('',#787,#795,#797,.T.);
#795 = VERTEX_POINT('',#796);
#796 = CARTESIAN_POINT('',(-1.538029,1.114658,1.275));
#797 = LINE('',#798,#799);
#798 = CARTESIAN_POINT('',(-1.57081,1.069176,1.275));
#799 = VECTOR('',#800,1.);
#800 = DIRECTION('',(0.58470358373,0.811247014893,0.));
#801 = ORIENTED_EDGE('',*,*,#802,.T.);
#802 = EDGE_CURVE('',#795,#803,#805,.T.);
#803 = VERTEX_POINT('',#804);
#804 = CARTESIAN_POINT('',(-1.406747,1.241183,1.275));
#805 = LINE('',#806,#807);
#806 = CARTESIAN_POINT('',(-1.538029,1.114658,1.275));
#807 = VECTOR('',#808,1.);
#808 = DIRECTION('',(0.720031601712,0.693941274559,0.));
#809 = ORIENTED_EDGE('',*,*,#810,.T.);
#810 = EDGE_CURVE('',#803,#811,#813,.T.);
#811 = VERTEX_POINT('',#812);
#812 = CARTESIAN_POINT('',(-1.178261,1.356963,1.275));
#813 = LINE('',#814,#815);
#814 = CARTESIAN_POINT('',(-1.406747,1.241183,1.275));
#815 = VECTOR('',#816,1.);
#816 = DIRECTION('',(0.892014117051,0.452007538633,0.));
#817 = ORIENTED_EDGE('',*,*,#818,.T.);
#818 = EDGE_CURVE('',#811,#441,#819,.T.);
#819 = LINE('',#820,#821);
#820 = CARTESIAN_POINT('',(-1.178261,1.356963,1.275));
#821 = VECTOR('',#822,1.);
#822 = DIRECTION('',(0.946045890925,0.3240326716,0.));
#823 = FACE_BOUND('',#824,.F.);
#824 = EDGE_LOOP('',(#825,#836,#844,#853,#861,#870,#878,#887));
#825 = ORIENTED_EDGE('',*,*,#826,.T.);
#826 = EDGE_CURVE('',#827,#829,#831,.T.);
#827 = VERTEX_POINT('',#828);
#828 = CARTESIAN_POINT('',(-0.575092,8.995E-03,1.275));
#829 = VERTEX_POINT('',#830);
#830 = CARTESIAN_POINT('',(-1.205859,8.994E-03,1.275));
#831 = CIRCLE('',#832,0.54690080641);
#832 = AXIS2_PLACEMENT_3D('',#833,#834,#835);
#833 = CARTESIAN_POINT('',(-0.89047479165,-0.4378094167,1.275));
#834 = DIRECTION('',(0.,0.,1.));
#835 = DIRECTION('',(0.576672749342,0.816975238405,-0.));
#836 = ORIENTED_EDGE('',*,*,#837,.T.);
#837 = EDGE_CURVE('',#829,#838,#840,.T.);
#838 = VERTEX_POINT('',#839);
#839 = CARTESIAN_POINT('',(-1.27046,-5.5606E-02,1.275));
#840 = LINE('',#841,#842);
#841 = CARTESIAN_POINT('',(-1.205859,8.994E-03,1.275));
#842 = VECTOR('',#843,1.);
#843 = DIRECTION('',(-0.707112254086,-0.707101308245,0.));
#844 = ORIENTED_EDGE('',*,*,#845,.T.);
#845 = EDGE_CURVE('',#838,#846,#848,.T.);
#846 = VERTEX_POINT('',#847);
#847 = CARTESIAN_POINT('',(-1.270461,-0.686374,1.275));
#848 = CIRCLE('',#849,0.546898001773);
#849 = AXIS2_PLACEMENT_3D('',#850,#851,#852);
#850 = CARTESIAN_POINT('',(-0.823660369196,-0.370990708343,1.275));
#851 = DIRECTION('',(0.,0.,1.));
#852 = DIRECTION('',(-0.816970677083,0.576679211335,0.));
#853 = ORIENTED_EDGE('',*,*,#854,.T.);
#854 = EDGE_CURVE('',#846,#855,#857,.T.);
#855 = VERTEX_POINT('',#856);
#856 = CARTESIAN_POINT('',(-1.205859,-0.750975,1.275));
#857 = LINE('',#858,#859);
#858 = CARTESIAN_POINT('',(-1.270461,-0.686374,1.275));
#859 = VECTOR('',#860,1.);
#860 = DIRECTION('',(0.707112254001,-0.70710130833,0.));
#861 = ORIENTED_EDGE('',*,*,#862,.T.);
#862 = EDGE_CURVE('',#855,#863,#865,.T.);
#863 = VERTEX_POINT('',#864);
#864 = CARTESIAN_POINT('',(-0.575092,-0.750976,1.275));
#865 = CIRCLE('',#866,0.54690080641);
#866 = AXIS2_PLACEMENT_3D('',#867,#868,#869);
#867 = CARTESIAN_POINT('',(-0.89047479165,-0.3041715833,1.275));
#868 = DIRECTION('',(0.,0.,1.));
#869 = DIRECTION('',(-0.576675339758,-0.816973409919,0.));
#870 = ORIENTED_EDGE('',*,*,#871,.T.);
#871 = EDGE_CURVE('',#863,#872,#874,.T.);
#872 = VERTEX_POINT('',#873);
#873 = CARTESIAN_POINT('',(-0.51049,-0.686374,1.275));
#874 = LINE('',#875,#876);
#875 = CARTESIAN_POINT('',(-0.575092,-0.750976,1.275));
#876 = VECTOR('',#877,1.);
#877 = DIRECTION('',(0.707106781187,0.707106781187,0.));
#878 = ORIENTED_EDGE('',*,*,#879,.T.);
#879 = EDGE_CURVE('',#872,#880,#882,.T.);
#880 = VERTEX_POINT('',#881);
#881 = CARTESIAN_POINT('',(-0.51049,-5.5606E-02,1.275));
#882 = CIRCLE('',#883,0.546900345826);
#883 = AXIS2_PLACEMENT_3D('',#884,#885,#886);
#884 = CARTESIAN_POINT('',(-0.957293,-0.37099,1.275));
#885 = DIRECTION('',(0.,-0.,1.));
#886 = DIRECTION('',(0.81697333602,-0.576675444451,-0.));
#887 = ORIENTED_EDGE('',*,*,#888,.T.);
#888 = EDGE_CURVE('',#880,#827,#889,.T.);
#889 = LINE('',#890,#891);
#890 = CARTESIAN_POINT('',(-0.51049,-5.5606E-02,1.275));
#891 = VECTOR('',#892,1.);
#892 = DIRECTION('',(-0.707112254001,0.70710130833,0.));
#893 = FACE_BOUND('',#894,.F.);
#894 = EDGE_LOOP('',(#895,#906,#914,#922,#930,#939,#947,#956,#964,#972)
  );
#895 = ORIENTED_EDGE('',*,*,#896,.T.);
#896 = EDGE_CURVE('',#897,#899,#901,.T.);
#897 = VERTEX_POINT('',#898);
#898 = CARTESIAN_POINT('',(-0.575092,0.951852,1.275));
#899 = VERTEX_POINT('',#900);
#900 = CARTESIAN_POINT('',(-1.205859,0.951852,1.275));
#901 = CIRCLE('',#902,0.546899240515);
#902 = AXIS2_PLACEMENT_3D('',#903,#904,#905);
#903 = CARTESIAN_POINT('',(-0.8904755,0.50505,1.275));
#904 = DIRECTION('',(0.,0.,1.));
#905 = DIRECTION('',(0.576675695696,0.816973158674,-0.));
#906 = ORIENTED_EDGE('',*,*,#907,.T.);
#907 = EDGE_CURVE('',#899,#908,#910,.T.);
#908 = VERTEX_POINT('',#909);
#909 = CARTESIAN_POINT('',(-1.270461,0.88725,1.275));
#910 = LINE('',#911,#912);
#911 = CARTESIAN_POINT('',(-1.205859,0.951852,1.275));
#912 = VECTOR('',#913,1.);
#913 = DIRECTION('',(-0.707106781187,-0.707106781187,0.));
#914 = ORIENTED_EDGE('',*,*,#915,.T.);
#915 = EDGE_CURVE('',#908,#916,#918,.T.);
#916 = VERTEX_POINT('',#917);
#917 = CARTESIAN_POINT('',(-1.344047,0.740078,1.275));
#918 = LINE('',#919,#920);
#919 = CARTESIAN_POINT('',(-1.270461,0.88725,1.275));
#920 = VECTOR('',#921,1.);
#921 = DIRECTION('',(-0.4472135955,-0.894427191,0.));
#922 = ORIENTED_EDGE('',*,*,#923,.T.);
#923 = EDGE_CURVE('',#916,#924,#926,.T.);
#924 = VERTEX_POINT('',#925);
#925 = CARTESIAN_POINT('',(-1.344047,0.71794,1.275));
#926 = LINE('',#927,#928);
#927 = CARTESIAN_POINT('',(-1.344047,0.740078,1.275));
#928 = VECTOR('',#929,1.);
#929 = DIRECTION('',(0.,-1.,0.));
#930 = ORIENTED_EDGE('',*,*,#931,.T.);
#931 = EDGE_CURVE('',#924,#932,#934,.T.);
#932 = VERTEX_POINT('',#933);
#933 = CARTESIAN_POINT('',(-1.058687,0.43258,1.275));
#934 = CIRCLE('',#935,0.39982543197);
#935 = AXIS2_PLACEMENT_3D('',#936,#937,#938);
#936 = CARTESIAN_POINT('',(-0.957292,0.819335,1.275));
#937 = DIRECTION('',(0.,0.,1.));
#938 = DIRECTION('',(-0.967309653351,-0.253598175335,0.));
#939 = ORIENTED_EDGE('',*,*,#940,.T.);
#940 = EDGE_CURVE('',#932,#941,#943,.T.);
#941 = VERTEX_POINT('',#942);
#942 = CARTESIAN_POINT('',(-0.722264,0.43258,1.275));
#943 = LINE('',#944,#945);
#944 = CARTESIAN_POINT('',(-1.058687,0.43258,1.275));
#945 = VECTOR('',#946,1.);
#946 = DIRECTION('',(1.,0.,0.));
#947 = ORIENTED_EDGE('',*,*,#948,.T.);
#948 = EDGE_CURVE('',#941,#949,#951,.T.);
#949 = VERTEX_POINT('',#950);
#950 = CARTESIAN_POINT('',(-0.436904,0.71794,1.275));
#951 = CIRCLE('',#952,0.39982543197);
#952 = AXIS2_PLACEMENT_3D('',#953,#954,#955);
#953 = CARTESIAN_POINT('',(-0.823659,0.819335,1.275));
#954 = DIRECTION('',(0.,0.,1.));
#955 = DIRECTION('',(0.253598175335,-0.967309653351,0.));
#956 = ORIENTED_EDGE('',*,*,#957,.T.);
#957 = EDGE_CURVE('',#949,#958,#960,.T.);
#958 = VERTEX_POINT('',#959);
#959 = CARTESIAN_POINT('',(-0.436904,0.740078,1.275));
#960 = LINE('',#961,#962);
#961 = CARTESIAN_POINT('',(-0.436904,0.71794,1.275));
#962 = VECTOR('',#963,1.);
#963 = DIRECTION('',(0.,1.,0.));
#964 = ORIENTED_EDGE('',*,*,#965,.T.);
#965 = EDGE_CURVE('',#958,#966,#968,.T.);
#966 = VERTEX_POINT('',#967);
#967 = CARTESIAN_POINT('',(-0.51049,0.88725,1.275));
#968 = LINE('',#969,#970);
#969 = CARTESIAN_POINT('',(-0.436904,0.740078,1.275));
#970 = VECTOR('',#971,1.);
#971 = DIRECTION('',(-0.4472135955,0.894427191,0.));
#972 = ORIENTED_EDGE('',*,*,#973,.T.);
#973 = EDGE_CURVE('',#966,#897,#974,.T.);
#974 = LINE('',#975,#976);
#975 = CARTESIAN_POINT('',(-0.51049,0.88725,1.275));
#976 = VECTOR('',#977,1.);
#977 = DIRECTION('',(-0.707106781187,0.707106781187,0.));
#978 = PLANE('',#979);
#979 = AXIS2_PLACEMENT_3D('',#980,#981,#982);
#980 = CARTESIAN_POINT('',(0.,0.,1.275));
#981 = DIRECTION('',(0.,0.,1.));
#982 = DIRECTION('',(1.,0.,-0.));
#983 = SHELL_BASED_SURFACE_MODEL('',(#984));
#984 = OPEN_SHELL('',(#985));
#985 = ADVANCED_FACE('',(#986,#1309),#1379,.T.);
#986 = FACE_BOUND('',#987,.F.);
#987 = EDGE_LOOP('',(#988,#998,#1006,#1015,#1023,#1031,#1039,#1047,#1055
    ,#1063,#1071,#1079,#1087,#1095,#1103,#1111,#1119,#1127,#1135,#1143,
    #1151,#1159,#1167,#1175,#1183,#1191,#1199,#1207,#1215,#1223,#1231,
    #1239,#1247,#1255,#1263,#1271,#1279,#1287,#1295,#1303));
#988 = ORIENTED_EDGE('',*,*,#989,.T.);
#989 = EDGE_CURVE('',#990,#992,#994,.T.);
#990 = VERTEX_POINT('',#991);
#991 = CARTESIAN_POINT('',(2.951573,1.372075,1.275));
#992 = VERTEX_POINT('',#993);
#993 = CARTESIAN_POINT('',(2.985714,1.375438,1.275));
#994 = LINE('',#995,#996);
#995 = CARTESIAN_POINT('',(2.951573,1.372075,1.275));
#996 = VECTOR('',#997,1.);
#997 = DIRECTION('',(0.995183575046,9.802883228026E-02,0.));
#998 = ORIENTED_EDGE('',*,*,#999,.T.);
#999 = EDGE_CURVE('',#992,#1000,#1002,.T.);
#1000 = VERTEX_POINT('',#1001);
#1001 = CARTESIAN_POINT('',(3.404761,1.375438,1.275));
#1002 = LINE('',#1003,#1004);
#1003 = CARTESIAN_POINT('',(2.985714,1.375438,1.275));
#1004 = VECTOR('',#1005,1.);
#1005 = DIRECTION('',(1.,0.,0.));
#1006 = ORIENTED_EDGE('',*,*,#1007,.T.);
#1007 = EDGE_CURVE('',#1000,#1008,#1010,.T.);
#1008 = VERTEX_POINT('',#1009);
#1009 = CARTESIAN_POINT('',(3.404761,1.025438,1.275));
#1010 = CIRCLE('',#1011,0.175);
#1011 = AXIS2_PLACEMENT_3D('',#1012,#1013,#1014);
#1012 = CARTESIAN_POINT('',(3.404760614448,1.200438,1.275));
#1013 = DIRECTION('',(0.,0.,-1.));
#1014 = DIRECTION('',(2.203154664413E-06,0.999999999998,0.));
#1015 = ORIENTED_EDGE('',*,*,#1016,.T.);
#1016 = EDGE_CURVE('',#1008,#1017,#1019,.T.);
#1017 = VERTEX_POINT('',#1018);
#1018 = CARTESIAN_POINT('',(3.027026,1.025438,1.275));
#1019 = LINE('',#1020,#1021);
#1020 = CARTESIAN_POINT('',(3.404761,1.025438,1.275));
#1021 = VECTOR('',#1022,1.);
#1022 = DIRECTION('',(-1.,0.,0.));
#1023 = ORIENTED_EDGE('',*,*,#1024,.T.);
#1024 = EDGE_CURVE('',#1017,#1025,#1027,.T.);
#1025 = VERTEX_POINT('',#1026);
#1026 = CARTESIAN_POINT('',(2.879854,0.951852,1.275));
#1027 = LINE('',#1028,#1029);
#1028 = CARTESIAN_POINT('',(3.027026,1.025438,1.275));
#1029 = VECTOR('',#1030,1.);
#1030 = DIRECTION('',(-0.894427191,-0.4472135955,0.));
#1031 = ORIENTED_EDGE('',*,*,#1032,.T.);
#1032 = EDGE_CURVE('',#1025,#1033,#1035,.T.);
#1033 = VERTEX_POINT('',#1034);
#1034 = CARTESIAN_POINT('',(2.807423,0.879421,1.275));
#1035 = LINE('',#1036,#1037);
#1036 = CARTESIAN_POINT('',(2.879854,0.951852,1.275));
#1037 = VECTOR('',#1038,1.);
#1038 = DIRECTION('',(-0.707106781187,-0.707106781187,0.));
#1039 = ORIENTED_EDGE('',*,*,#1040,.T.);
#1040 = EDGE_CURVE('',#1033,#1041,#1043,.T.);
#1041 = VERTEX_POINT('',#1042);
#1042 = CARTESIAN_POINT('',(2.624327,0.604776,1.275));
#1043 = LINE('',#1044,#1045);
#1044 = CARTESIAN_POINT('',(2.807423,0.879421,1.275));
#1045 = VECTOR('',#1046,1.);
#1046 = DIRECTION('',(-0.55469879797,-0.832051226506,0.));
#1047 = ORIENTED_EDGE('',*,*,#1048,.T.);
#1048 = EDGE_CURVE('',#1041,#1049,#1051,.T.);
#1049 = VERTEX_POINT('',#1050);
#1050 = CARTESIAN_POINT('',(2.589267,0.464536,1.275));
#1051 = LINE('',#1052,#1053);
#1052 = CARTESIAN_POINT('',(2.624327,0.604776,1.275));
#1053 = VECTOR('',#1054,1.);
#1054 = DIRECTION('',(-0.242535625036,-0.970142500145,0.));
#1055 = ORIENTED_EDGE('',*,*,#1056,.T.);
#1056 = EDGE_CURVE('',#1049,#1057,#1059,.T.);
#1057 = VERTEX_POINT('',#1058);
#1058 = CARTESIAN_POINT('',(2.729968,0.531127,1.275));
#1059 = LINE('',#1060,#1061);
#1060 = CARTESIAN_POINT('',(2.589267,0.464536,1.275));
#1061 = VECTOR('',#1062,1.);
#1062 = DIRECTION('',(0.903879062022,0.427788079823,0.));
#1063 = ORIENTED_EDGE('',*,*,#1064,.T.);
#1064 = EDGE_CURVE('',#1057,#1065,#1067,.T.);
#1065 = VERTEX_POINT('',#1066);
#1066 = CARTESIAN_POINT('',(2.77619,0.537342,1.275));
#1067 = LINE('',#1068,#1069);
#1068 = CARTESIAN_POINT('',(2.729968,0.531127,1.275));
#1069 = VECTOR('',#1070,1.);
#1070 = DIRECTION('',(0.991081040359,0.133260539696,0.));
#1071 = ORIENTED_EDGE('',*,*,#1072,.T.);
#1072 = EDGE_CURVE('',#1065,#1073,#1075,.T.);
#1073 = VERTEX_POINT('',#1074);
#1074 = CARTESIAN_POINT('',(3.195237,0.537342,1.275));
#1075 = LINE('',#1076,#1077);
#1076 = CARTESIAN_POINT('',(2.77619,0.537342,1.275));
#1077 = VECTOR('',#1078,1.);
#1078 = DIRECTION('',(1.,0.,0.));
#1079 = ORIENTED_EDGE('',*,*,#1080,.T.);
#1080 = EDGE_CURVE('',#1073,#1081,#1083,.T.);
#1081 = VERTEX_POINT('',#1082);
#1082 = CARTESIAN_POINT('',(3.241459,0.531127,1.275));
#1083 = LINE('',#1084,#1085);
#1084 = CARTESIAN_POINT('',(3.195237,0.537342,1.275));
#1085 = VECTOR('',#1086,1.);
#1086 = DIRECTION('',(0.991081040359,-0.133260539696,0.));
#1087 = ORIENTED_EDGE('',*,*,#1088,.T.);
#1088 = EDGE_CURVE('',#1081,#1089,#1091,.T.);
#1089 = VERTEX_POINT('',#1090);
#1090 = CARTESIAN_POINT('',(3.483023,0.414105,1.275));
#1091 = LINE('',#1092,#1093);
#1092 = CARTESIAN_POINT('',(3.241459,0.531127,1.275));
#1093 = VECTOR('',#1094,1.);
#1094 = DIRECTION('',(0.899960220371,-0.435972019458,0.));
#1095 = ORIENTED_EDGE('',*,*,#1096,.T.);
#1096 = EDGE_CURVE('',#1089,#1097,#1099,.T.);
#1097 = VERTEX_POINT('',#1098);
#1098 = CARTESIAN_POINT('',(3.528504,0.381324,1.275));
#1099 = LINE('',#1100,#1101);
#1100 = CARTESIAN_POINT('',(3.483023,0.414105,1.275));
#1101 = VECTOR('',#1102,1.);
#1102 = DIRECTION('',(0.811240916794,-0.584712044445,0.));
#1103 = ORIENTED_EDGE('',*,*,#1104,.T.);
#1104 = EDGE_CURVE('',#1097,#1105,#1107,.T.);
#1105 = VERTEX_POINT('',#1106);
#1106 = CARTESIAN_POINT('',(3.655029,0.250044,1.275));
#1107 = LINE('',#1108,#1109);
#1108 = CARTESIAN_POINT('',(3.528504,0.381324,1.275));
#1109 = VECTOR('',#1110,1.);
#1110 = DIRECTION('',(0.693946755466,-0.720026319365,0.));
#1111 = ORIENTED_EDGE('',*,*,#1112,.T.);
#1112 = EDGE_CURVE('',#1105,#1113,#1115,.T.);
#1113 = VERTEX_POINT('',#1114);
#1114 = CARTESIAN_POINT('',(3.77081,2.1559E-02,1.275));
#1115 = LINE('',#1116,#1117);
#1116 = CARTESIAN_POINT('',(3.655029,0.250044,1.275));
#1117 = VECTOR('',#1118,1.);
#1118 = DIRECTION('',(0.452012219112,-0.892011745311,0.));
#1119 = ORIENTED_EDGE('',*,*,#1120,.T.);
#1120 = EDGE_CURVE('',#1113,#1121,#1123,.T.);
#1121 = VERTEX_POINT('',#1122);
#1122 = CARTESIAN_POINT('',(3.785922,-2.2563E-02,1.275));
#1123 = LINE('',#1124,#1125);
#1124 = CARTESIAN_POINT('',(3.77081,2.1559E-02,1.275));
#1125 = VECTOR('',#1126,1.);
#1126 = DIRECTION('',(0.324026098661,-0.946048142214,0.));
#1127 = ORIENTED_EDGE('',*,*,#1128,.T.);
#1128 = EDGE_CURVE('',#1121,#1129,#1131,.T.);
#1129 = VERTEX_POINT('',#1130);
#1130 = CARTESIAN_POINT('',(3.789285,-5.6704E-02,1.275));
#1131 = LINE('',#1132,#1133);
#1132 = CARTESIAN_POINT('',(3.785922,-2.2563E-02,1.275));
#1133 = VECTOR('',#1134,1.);
#1134 = DIRECTION('',(9.802883228027E-02,-0.995183575046,0.));
#1135 = ORIENTED_EDGE('',*,*,#1136,.T.);
#1136 = EDGE_CURVE('',#1129,#1137,#1139,.T.);
#1137 = VERTEX_POINT('',#1138);
#1138 = CARTESIAN_POINT('',(3.789285,-0.580514,1.275));
#1139 = LINE('',#1140,#1141);
#1140 = CARTESIAN_POINT('',(3.789285,-5.6704E-02,1.275));
#1141 = VECTOR('',#1142,1.);
#1142 = DIRECTION('',(0.,-1.,0.));
#1143 = ORIENTED_EDGE('',*,*,#1144,.T.);
#1144 = EDGE_CURVE('',#1137,#1145,#1147,.T.);
#1145 = VERTEX_POINT('',#1146);
#1146 = CARTESIAN_POINT('',(3.78307,-0.626736,1.275));
#1147 = LINE('',#1148,#1149);
#1148 = CARTESIAN_POINT('',(3.789285,-0.580514,1.275));
#1149 = VECTOR('',#1150,1.);
#1150 = DIRECTION('',(-0.133260539696,-0.991081040359,0.));
#1151 = ORIENTED_EDGE('',*,*,#1152,.T.);
#1152 = EDGE_CURVE('',#1145,#1153,#1155,.T.);
#1153 = VERTEX_POINT('',#1154);
#1154 = CARTESIAN_POINT('',(3.666048,-0.8683,1.275));
#1155 = LINE('',#1156,#1157);
#1156 = CARTESIAN_POINT('',(3.78307,-0.626736,1.275));
#1157 = VECTOR('',#1158,1.);
#1158 = DIRECTION('',(-0.435972019458,-0.899960220371,0.));
#1159 = ORIENTED_EDGE('',*,*,#1160,.T.);
#1160 = EDGE_CURVE('',#1153,#1161,#1163,.T.);
#1161 = VERTEX_POINT('',#1162);
#1162 = CARTESIAN_POINT('',(3.633267,-0.913782,1.275));
#1163 = LINE('',#1164,#1165);
#1164 = CARTESIAN_POINT('',(3.666048,-0.8683,1.275));
#1165 = VECTOR('',#1166,1.);
#1166 = DIRECTION('',(-0.58470358373,-0.811247014893,0.));
#1167 = ORIENTED_EDGE('',*,*,#1168,.T.);
#1168 = EDGE_CURVE('',#1161,#1169,#1171,.T.);
#1169 = VERTEX_POINT('',#1170);
#1170 = CARTESIAN_POINT('',(3.501985,-1.040307,1.275));
#1171 = LINE('',#1172,#1173);
#1172 = CARTESIAN_POINT('',(3.633267,-0.913782,1.275));
#1173 = VECTOR('',#1174,1.);
#1174 = DIRECTION('',(-0.720031601712,-0.693941274559,0.));
#1175 = ORIENTED_EDGE('',*,*,#1176,.T.);
#1176 = EDGE_CURVE('',#1169,#1177,#1179,.T.);
#1177 = VERTEX_POINT('',#1178);
#1178 = CARTESIAN_POINT('',(3.273499,-1.156086,1.275));
#1179 = LINE('',#1180,#1181);
#1180 = CARTESIAN_POINT('',(3.501985,-1.040307,1.275));
#1181 = VECTOR('',#1182,1.);
#1182 = DIRECTION('',(-0.892015691138,-0.452004432238,0.));
#1183 = ORIENTED_EDGE('',*,*,#1184,.T.);
#1184 = EDGE_CURVE('',#1177,#1185,#1187,.T.);
#1185 = VERTEX_POINT('',#1186);
#1186 = CARTESIAN_POINT('',(3.229378,-1.171198,1.275));
#1187 = LINE('',#1188,#1189);
#1188 = CARTESIAN_POINT('',(3.273499,-1.156086,1.275));
#1189 = VECTOR('',#1190,1.);
#1190 = DIRECTION('',(-0.946045890925,-0.3240326716,0.));
#1191 = ORIENTED_EDGE('',*,*,#1192,.T.);
#1192 = EDGE_CURVE('',#1185,#1193,#1195,.T.);
#1193 = VERTEX_POINT('',#1194);
#1194 = CARTESIAN_POINT('',(3.195237,-1.174561,1.275));
#1195 = LINE('',#1196,#1197);
#1196 = CARTESIAN_POINT('',(3.229378,-1.171198,1.275));
#1197 = VECTOR('',#1198,1.);
#1198 = DIRECTION('',(-0.995183575046,-9.802883228026E-02,0.));
#1199 = ORIENTED_EDGE('',*,*,#1200,.T.);
#1200 = EDGE_CURVE('',#1193,#1201,#1203,.T.);
#1201 = VERTEX_POINT('',#1202);
#1202 = CARTESIAN_POINT('',(2.77619,-1.174561,1.275));
#1203 = LINE('',#1204,#1205);
#1204 = CARTESIAN_POINT('',(3.195237,-1.174561,1.275));
#1205 = VECTOR('',#1206,1.);
#1206 = DIRECTION('',(-1.,0.,0.));
#1207 = ORIENTED_EDGE('',*,*,#1208,.T.);
#1208 = EDGE_CURVE('',#1201,#1209,#1211,.T.);
#1209 = VERTEX_POINT('',#1210);
#1210 = CARTESIAN_POINT('',(2.729969,-1.168347,1.275));
#1211 = LINE('',#1212,#1213);
#1212 = CARTESIAN_POINT('',(2.77619,-1.174561,1.275));
#1213 = VECTOR('',#1214,1.);
#1214 = DIRECTION('',(-0.991083491336,0.133242310101,0.));
#1215 = ORIENTED_EDGE('',*,*,#1216,.T.);
#1216 = EDGE_CURVE('',#1209,#1217,#1219,.T.);
#1217 = VERTEX_POINT('',#1218);
#1218 = CARTESIAN_POINT('',(2.488404,-1.051325,1.275));
#1219 = LINE('',#1220,#1221);
#1220 = CARTESIAN_POINT('',(2.729969,-1.168347,1.275));
#1221 = VECTOR('',#1222,1.);
#1222 = DIRECTION('',(-0.89996092849,0.435970557712,0.));
#1223 = ORIENTED_EDGE('',*,*,#1224,.T.);
#1224 = EDGE_CURVE('',#1217,#1225,#1227,.T.);
#1225 = VERTEX_POINT('',#1226);
#1226 = CARTESIAN_POINT('',(2.442922,-1.018544,1.275));
#1227 = LINE('',#1228,#1229);
#1228 = CARTESIAN_POINT('',(2.488404,-1.051325,1.275));
#1229 = VECTOR('',#1230,1.);
#1230 = DIRECTION('',(-0.811247014893,0.58470358373,0.));
#1231 = ORIENTED_EDGE('',*,*,#1232,.T.);
#1232 = EDGE_CURVE('',#1225,#1233,#1235,.T.);
#1233 = VERTEX_POINT('',#1234);
#1234 = CARTESIAN_POINT('',(2.316397,-0.887262,1.275));
#1235 = LINE('',#1236,#1237);
#1236 = CARTESIAN_POINT('',(2.442922,-1.018544,1.275));
#1237 = VECTOR('',#1238,1.);
#1238 = DIRECTION('',(-0.693941274559,0.720031601712,0.));
#1239 = ORIENTED_EDGE('',*,*,#1240,.T.);
#1240 = EDGE_CURVE('',#1233,#1241,#1243,.T.);
#1241 = VERTEX_POINT('',#1242);
#1242 = CARTESIAN_POINT('',(2.200617,-0.658776,1.275));
#1243 = LINE('',#1244,#1245);
#1244 = CARTESIAN_POINT('',(2.316397,-0.887262,1.275));
#1245 = VECTOR('',#1246,1.);
#1246 = DIRECTION('',(-0.452007538633,0.892014117051,0.));
#1247 = ORIENTED_EDGE('',*,*,#1248,.T.);
#1248 = EDGE_CURVE('',#1241,#1249,#1251,.T.);
#1249 = VERTEX_POINT('',#1250);
#1250 = CARTESIAN_POINT('',(2.185505,-0.614655,1.275));
#1251 = LINE('',#1252,#1253);
#1252 = CARTESIAN_POINT('',(2.200617,-0.658776,1.275));
#1253 = VECTOR('',#1254,1.);
#1254 = DIRECTION('',(-0.3240326716,0.946045890925,0.));
#1255 = ORIENTED_EDGE('',*,*,#1256,.T.);
#1256 = EDGE_CURVE('',#1249,#1257,#1259,.T.);
#1257 = VERTEX_POINT('',#1258);
#1258 = CARTESIAN_POINT('',(2.182142,-0.580514,1.275));
#1259 = LINE('',#1260,#1261);
#1260 = CARTESIAN_POINT('',(2.185505,-0.614655,1.275));
#1261 = VECTOR('',#1262,1.);
#1262 = DIRECTION('',(-9.802883228027E-02,0.995183575046,0.));
#1263 = ORIENTED_EDGE('',*,*,#1264,.T.);
#1264 = EDGE_CURVE('',#1257,#1265,#1267,.T.);
#1265 = VERTEX_POINT('',#1266);
#1266 = CARTESIAN_POINT('',(2.184238,0.278868,1.275));
#1267 = LINE('',#1268,#1269);
#1268 = CARTESIAN_POINT('',(2.182142,-0.580514,1.275));
#1269 = VECTOR('',#1270,1.);
#1270 = DIRECTION('',(2.438954697635E-03,0.999997025746,0.));
#1271 = ORIENTED_EDGE('',*,*,#1272,.T.);
#1272 = EDGE_CURVE('',#1265,#1273,#1275,.T.);
#1273 = VERTEX_POINT('',#1274);
#1274 = CARTESIAN_POINT('',(2.302205,0.747274,1.275));
#1275 = LINE('',#1276,#1277);
#1276 = CARTESIAN_POINT('',(2.184238,0.278868,1.275));
#1277 = VECTOR('',#1278,1.);
#1278 = DIRECTION('',(0.244221663219,0.969719433246,0.));
#1279 = ORIENTED_EDGE('',*,*,#1280,.T.);
#1280 = EDGE_CURVE('',#1273,#1281,#1283,.T.);
#1281 = VERTEX_POINT('',#1282);
#1282 = CARTESIAN_POINT('',(2.536837,1.10144,1.275));
#1283 = LINE('',#1284,#1285);
#1284 = CARTESIAN_POINT('',(2.302205,0.747274,1.275));
#1285 = VECTOR('',#1286,1.);
#1286 = DIRECTION('',(0.552288253221,0.833653216484,0.));
#1287 = ORIENTED_EDGE('',*,*,#1288,.T.);
#1288 = EDGE_CURVE('',#1281,#1289,#1291,.T.);
#1289 = VERTEX_POINT('',#1290);
#1290 = CARTESIAN_POINT('',(2.674156,1.237236,1.275));
#1291 = LINE('',#1292,#1293);
#1292 = CARTESIAN_POINT('',(2.536837,1.10144,1.275));
#1293 = VECTOR('',#1294,1.);
#1294 = DIRECTION('',(0.711038840109,0.703152734373,0.));
#1295 = ORIENTED_EDGE('',*,*,#1296,.T.);
#1296 = EDGE_CURVE('',#1289,#1297,#1299,.T.);
#1297 = VERTEX_POINT('',#1298);
#1298 = CARTESIAN_POINT('',(2.907452,1.356963,1.275));
#1299 = LINE('',#1300,#1301);
#1300 = CARTESIAN_POINT('',(2.674156,1.237236,1.275));
#1301 = VECTOR('',#1302,1.);
#1302 = DIRECTION('',(0.889681120713,0.456582416928,0.));
#1303 = ORIENTED_EDGE('',*,*,#1304,.T.);
#1304 = EDGE_CURVE('',#1297,#990,#1305,.T.);
#1305 = LINE('',#1306,#1307);
#1306 = CARTESIAN_POINT('',(2.907452,1.356963,1.275));
#1307 = VECTOR('',#1308,1.);
#1308 = DIRECTION('',(0.946045890925,0.3240326716,0.));
#1309 = FACE_BOUND('',#1310,.F.);
#1310 = EDGE_LOOP('',(#1311,#1322,#1330,#1339,#1347,#1356,#1364,#1373));
#1311 = ORIENTED_EDGE('',*,*,#1312,.T.);
#1312 = EDGE_CURVE('',#1313,#1315,#1317,.T.);
#1313 = VERTEX_POINT('',#1314);
#1314 = CARTESIAN_POINT('',(3.301099,0.113754,1.275));
#1315 = VERTEX_POINT('',#1316);
#1316 = CARTESIAN_POINT('',(2.670327,0.113754,1.275));
#1317 = CIRCLE('',#1318,0.546898814744);
#1318 = AXIS2_PLACEMENT_3D('',#1319,#1320,#1321);
#1319 = CARTESIAN_POINT('',(2.985713,-0.333045714159,1.275));
#1320 = DIRECTION('',(0.,0.,1.));
#1321 = DIRECTION('',(0.576680715879,0.816969615061,-0.));
#1322 = ORIENTED_EDGE('',*,*,#1323,.T.);
#1323 = EDGE_CURVE('',#1315,#1324,#1326,.T.);
#1324 = VERTEX_POINT('',#1325);
#1325 = CARTESIAN_POINT('',(2.605729,4.9157E-02,1.275));
#1326 = LINE('',#1327,#1328);
#1327 = CARTESIAN_POINT('',(2.670327,0.113754,1.275));
#1328 = VECTOR('',#1329,1.);
#1329 = DIRECTION('',(-0.70711225434,-0.707101307991,0.));
#1330 = ORIENTED_EDGE('',*,*,#1331,.T.);
#1331 = EDGE_CURVE('',#1324,#1332,#1334,.T.);
#1332 = VERTEX_POINT('',#1333);
#1333 = CARTESIAN_POINT('',(2.605728,-0.686374,1.275));
#1334 = CIRCLE('',#1335,0.662929833039);
#1335 = AXIS2_PLACEMENT_3D('',#1336,#1337,#1338);
#1336 = CARTESIAN_POINT('',(3.157293999775,-0.318609249887,1.275));
#1337 = DIRECTION('',(0.,0.,1.));
#1338 = DIRECTION('',(-0.832011130419,0.554758937611,0.));
#1339 = ORIENTED_EDGE('',*,*,#1340,.T.);
#1340 = EDGE_CURVE('',#1332,#1341,#1343,.T.);
#1341 = VERTEX_POINT('',#1342);
#1342 = CARTESIAN_POINT('',(2.670329,-0.750975,1.275));
#1343 = LINE('',#1344,#1345);
#1344 = CARTESIAN_POINT('',(2.605728,-0.686374,1.275));
#1345 = VECTOR('',#1346,1.);
#1346 = DIRECTION('',(0.707106781187,-0.707106781187,0.));
#1347 = ORIENTED_EDGE('',*,*,#1348,.T.);
#1348 = EDGE_CURVE('',#1341,#1349,#1351,.T.);
#1349 = VERTEX_POINT('',#1350);
#1350 = CARTESIAN_POINT('',(3.301096,-0.750976,1.275));
#1351 = CIRCLE('',#1352,0.546902673955);
#1352 = AXIS2_PLACEMENT_3D('',#1353,#1354,#1355);
#1353 = CARTESIAN_POINT('',(2.985713208354,-0.304169297372,1.275));
#1354 = DIRECTION('',(0.,0.,1.));
#1355 = DIRECTION('',(-0.576673370552,-0.816974799915,0.));
#1356 = ORIENTED_EDGE('',*,*,#1357,.T.);
#1357 = EDGE_CURVE('',#1349,#1358,#1360,.T.);
#1358 = VERTEX_POINT('',#1359);
#1359 = CARTESIAN_POINT('',(3.365699,-0.686374,1.275));
#1360 = LINE('',#1361,#1362);
#1361 = CARTESIAN_POINT('',(3.301096,-0.750976,1.275));
#1362 = VECTOR('',#1363,1.);
#1363 = DIRECTION('',(0.707112253916,0.707101308414,0.));
#1364 = ORIENTED_EDGE('',*,*,#1365,.T.);
#1365 = EDGE_CURVE('',#1358,#1366,#1368,.T.);
#1366 = VERTEX_POINT('',#1367);
#1367 = CARTESIAN_POINT('',(3.365697,4.9157E-02,1.275));
#1368 = CIRCLE('',#1369,0.66292692158);
#1369 = AXIS2_PLACEMENT_3D('',#1370,#1371,#1372);
#1370 = CARTESIAN_POINT('',(2.814135999531,-0.318609999765,1.275));
#1371 = DIRECTION('',(0.,-0.,1.));
#1372 = DIRECTION('',(0.83201176859,-0.5547579805,-0.));
#1373 = ORIENTED_EDGE('',*,*,#1374,.T.);
#1374 = EDGE_CURVE('',#1366,#1313,#1375,.T.);
#1375 = LINE('',#1376,#1377);
#1376 = CARTESIAN_POINT('',(3.365697,4.9157E-02,1.275));
#1377 = VECTOR('',#1378,1.);
#1378 = DIRECTION('',(-0.70711225434,0.707101307991,0.));
#1379 = PLANE('',#1380);
#1380 = AXIS2_PLACEMENT_3D('',#1381,#1382,#1383);
#1381 = CARTESIAN_POINT('',(0.,0.,1.275));
#1382 = DIRECTION('',(0.,0.,1.));
#1383 = DIRECTION('',(1.,0.,-0.));
#1384 = SHELL_BASED_SURFACE_MODEL('',(#1385));
#1385 = OPEN_SHELL('',(#1386));
#1386 = ADVANCED_FACE('',(#1387),#1489,.T.);
#1387 = FACE_BOUND('',#1388,.F.);
#1388 = EDGE_LOOP('',(#1389,#1399,#1408,#1416,#1424,#1433,#1441,#1449,
    #1458,#1466,#1474,#1483));
#1389 = ORIENTED_EDGE('',*,*,#1390,.T.);
#1390 = EDGE_CURVE('',#1391,#1393,#1395,.T.);
#1391 = VERTEX_POINT('',#1392);
#1392 = CARTESIAN_POINT('',(1.047618,1.7024E-02,1.275));
#1393 = VERTEX_POINT('',#1394);
#1394 = CARTESIAN_POINT('',(1.486203,0.575223,1.275));
#1395 = LINE('',#1396,#1397);
#1396 = CARTESIAN_POINT('',(1.047618,1.7024E-02,1.275));
#1397 = VECTOR('',#1398,1.);
#1398 = DIRECTION('',(0.617821614144,0.786318289941,0.));
#1399 = ORIENTED_EDGE('',*,*,#1400,.T.);
#1400 = EDGE_CURVE('',#1393,#1401,#1403,.T.);
#1401 = VERTEX_POINT('',#1402);
#1402 = CARTESIAN_POINT('',(1.761414,0.358985,1.275));
#1403 = CIRCLE('',#1404,0.174999976548);
#1404 = AXIS2_PLACEMENT_3D('',#1405,#1406,#1407);
#1405 = CARTESIAN_POINT('',(1.623808115464,0.467103510593,1.275));
#1406 = DIRECTION('',(0.,0.,-1.));
#1407 = DIRECTION('',(-0.786315050887,0.617825736554,0.));
#1408 = ORIENTED_EDGE('',*,*,#1409,.T.);
#1409 = EDGE_CURVE('',#1401,#1410,#1412,.T.);
#1410 = VERTEX_POINT('',#1411);
#1411 = CARTESIAN_POINT('',(1.270174,-0.266228,1.275));
#1412 = LINE('',#1413,#1414);
#1413 = CARTESIAN_POINT('',(1.761414,0.358985,1.275));
#1414 = VECTOR('',#1415,1.);
#1415 = DIRECTION('',(-0.617822496183,-0.78631759691,0.));
#1416 = ORIENTED_EDGE('',*,*,#1417,.T.);
#1417 = EDGE_CURVE('',#1410,#1418,#1420,.T.);
#1418 = VERTEX_POINT('',#1419);
#1419 = CARTESIAN_POINT('',(1.761414,-0.891442,1.275));
#1420 = LINE('',#1421,#1422);
#1421 = CARTESIAN_POINT('',(1.270174,-0.266228,1.275));
#1422 = VECTOR('',#1423,1.);
#1423 = DIRECTION('',(0.617821885197,-0.786318076971,0.));
#1424 = ORIENTED_EDGE('',*,*,#1425,.T.);
#1425 = EDGE_CURVE('',#1418,#1426,#1428,.T.);
#1426 = VERTEX_POINT('',#1427);
#1427 = CARTESIAN_POINT('',(1.486203,-1.10768,1.275));
#1428 = CIRCLE('',#1429,0.174999976546);
#1429 = AXIS2_PLACEMENT_3D('',#1430,#1431,#1432);
#1430 = CARTESIAN_POINT('',(1.623808531117,-0.999561039603,1.275));
#1431 = DIRECTION('',(0.,0.,-1.));
#1432 = DIRECTION('',(0.78631707043,0.617823166245,0.));
#1433 = ORIENTED_EDGE('',*,*,#1434,.T.);
#1434 = EDGE_CURVE('',#1426,#1435,#1437,.T.);
#1435 = VERTEX_POINT('',#1436);
#1436 = CARTESIAN_POINT('',(1.047618,-0.549481,1.275));
#1437 = LINE('',#1438,#1439);
#1438 = CARTESIAN_POINT('',(1.486203,-1.10768,1.275));
#1439 = VECTOR('',#1440,1.);
#1440 = DIRECTION('',(-0.617821614144,0.786318289941,0.));
#1441 = ORIENTED_EDGE('',*,*,#1442,.T.);
#1442 = EDGE_CURVE('',#1435,#1443,#1445,.T.);
#1443 = VERTEX_POINT('',#1444);
#1444 = CARTESIAN_POINT('',(0.609034,-1.10768,1.275));
#1445 = LINE('',#1446,#1447);
#1446 = CARTESIAN_POINT('',(1.047618,-0.549481,1.275));
#1447 = VECTOR('',#1448,1.);
#1448 = DIRECTION('',(-0.617820743168,-0.786318974279,0.));
#1449 = ORIENTED_EDGE('',*,*,#1450,.T.);
#1450 = EDGE_CURVE('',#1443,#1451,#1453,.T.);
#1451 = VERTEX_POINT('',#1452);
#1452 = CARTESIAN_POINT('',(0.333822,-0.891442,1.275));
#1453 = CIRCLE('',#1454,0.17500036971);
#1454 = AXIS2_PLACEMENT_3D('',#1455,#1456,#1457);
#1455 = CARTESIAN_POINT('',(0.471428774733,-0.999560013976,1.275));
#1456 = DIRECTION('',(-0.,0.,-1.));
#1457 = DIRECTION('',(0.786313911765,-0.617827186328,-0.));
#1458 = ORIENTED_EDGE('',*,*,#1459,.T.);
#1459 = EDGE_CURVE('',#1451,#1460,#1462,.T.);
#1460 = VERTEX_POINT('',#1461);
#1461 = CARTESIAN_POINT('',(0.825061,-0.266228,1.275));
#1462 = LINE('',#1463,#1464);
#1463 = CARTESIAN_POINT('',(0.333822,-0.891442,1.275));
#1464 = VECTOR('',#1465,1.);
#1465 = DIRECTION('',(0.617821107578,0.786318687957,0.));
#1466 = ORIENTED_EDGE('',*,*,#1467,.T.);
#1467 = EDGE_CURVE('',#1460,#1468,#1470,.T.);
#1468 = VERTEX_POINT('',#1469);
#1469 = CARTESIAN_POINT('',(0.333822,0.358985,1.275));
#1470 = LINE('',#1471,#1472);
#1471 = CARTESIAN_POINT('',(0.825061,-0.266228,1.275));
#1472 = VECTOR('',#1473,1.);
#1473 = DIRECTION('',(-0.617821718565,0.786318207897,0.));
#1474 = ORIENTED_EDGE('',*,*,#1475,.T.);
#1475 = EDGE_CURVE('',#1468,#1476,#1478,.T.);
#1476 = VERTEX_POINT('',#1477);
#1477 = CARTESIAN_POINT('',(0.609034,0.575223,1.275));
#1478 = CIRCLE('',#1479,0.175000369705);
#1479 = AXIS2_PLACEMENT_3D('',#1480,#1481,#1482);
#1480 = CARTESIAN_POINT('',(0.471427883724,0.467104147987,1.275));
#1481 = DIRECTION('',(0.,0.,-1.));
#1482 = DIRECTION('',(-0.786317674391,-0.617822397571,-0.));
#1483 = ORIENTED_EDGE('',*,*,#1484,.T.);
#1484 = EDGE_CURVE('',#1476,#1391,#1485,.T.);
#1485 = LINE('',#1486,#1487);
#1486 = CARTESIAN_POINT('',(0.609034,0.575223,1.275));
#1487 = VECTOR('',#1488,1.);
#1488 = DIRECTION('',(0.617820743168,-0.786318974279,0.));
#1489 = PLANE('',#1490);
#1490 = AXIS2_PLACEMENT_3D('',#1491,#1492,#1493);
#1491 = CARTESIAN_POINT('',(0.,0.,1.275));
#1492 = DIRECTION('',(0.,0.,1.));
#1493 = DIRECTION('',(1.,0.,-0.));
#1494 = SHELL_BASED_SURFACE_MODEL('',(#1495));
#1495 = OPEN_SHELL('',(#1496));
#1496 = ADVANCED_FACE('',(#1497),#1648,.T.);
#1497 = FACE_BOUND('',#1498,.F.);
#1498 = EDGE_LOOP('',(#1499,#1510,#1518,#1526,#1534,#1543,#1551,#1559,
    #1568,#1576,#1584,#1593,#1601,#1609,#1618,#1626,#1634,#1642));
#1499 = ORIENTED_EDGE('',*,*,#1500,.T.);
#1500 = EDGE_CURVE('',#1501,#1503,#1505,.T.);
#1501 = VERTEX_POINT('',#1502);
#1502 = CARTESIAN_POINT('',(4.868895,1.443449,1.275));
#1503 = VERTEX_POINT('',#1504);
#1504 = CARTESIAN_POINT('',(5.14221,1.24986,1.275));
#1505 = CIRCLE('',#1506,0.175000277813);
#1506 = AXIS2_PLACEMENT_3D('',#1507,#1508,#1509);
#1507 = CARTESIAN_POINT('',(4.976190085538,1.305199725665,1.275));
#1508 = DIRECTION('',(0.,0.,-1.));
#1509 = DIRECTION('',(-0.613113801179,0.789994599225,0.));
#1510 = ORIENTED_EDGE('',*,*,#1511,.T.);
#1511 = EDGE_CURVE('',#1503,#1512,#1514,.T.);
#1512 = VERTEX_POINT('',#1513);
#1513 = CARTESIAN_POINT('',(4.69518,-9.1228E-02,1.275));
#1514 = LINE('',#1515,#1516);
#1515 = CARTESIAN_POINT('',(5.14221,1.24986,1.275));
#1516 = VECTOR('',#1517,1.);
#1517 = DIRECTION('',(-0.316228190456,-0.948683156571,0.));
#1518 = ORIENTED_EDGE('',*,*,#1519,.T.);
#1519 = EDGE_CURVE('',#1512,#1520,#1522,.T.);
#1520 = VERTEX_POINT('',#1521);
#1521 = CARTESIAN_POINT('',(5.324999,-9.1228E-02,1.275));
#1522 = LINE('',#1523,#1524);
#1523 = CARTESIAN_POINT('',(4.69518,-9.1228E-02,1.275));
#1524 = VECTOR('',#1525,1.);
#1525 = DIRECTION('',(1.,0.,0.));
#1526 = ORIENTED_EDGE('',*,*,#1527,.T.);
#1527 = EDGE_CURVE('',#1520,#1528,#1530,.T.);
#1528 = VERTEX_POINT('',#1529);
#1529 = CARTESIAN_POINT('',(5.324999,0.467104,1.275));
#1530 = LINE('',#1531,#1532);
#1531 = CARTESIAN_POINT('',(5.324999,-9.1228E-02,1.275));
#1532 = VECTOR('',#1533,1.);
#1533 = DIRECTION('',(0.,1.,0.));
#1534 = ORIENTED_EDGE('',*,*,#1535,.T.);
#1535 = EDGE_CURVE('',#1528,#1536,#1538,.T.);
#1536 = VERTEX_POINT('',#1537);
#1537 = CARTESIAN_POINT('',(5.674999,0.467104,1.275));
#1538 = CIRCLE('',#1539,0.175);
#1539 = AXIS2_PLACEMENT_3D('',#1540,#1541,#1542);
#1540 = CARTESIAN_POINT('',(5.499999,0.467103614448,1.275));
#1541 = DIRECTION('',(0.,0.,-1.));
#1542 = DIRECTION('',(-0.999999999998,2.203154665999E-06,0.));
#1543 = ORIENTED_EDGE('',*,*,#1544,.T.);
#1544 = EDGE_CURVE('',#1536,#1545,#1547,.T.);
#1545 = VERTEX_POINT('',#1546);
#1546 = CARTESIAN_POINT('',(5.674999,-9.1228E-02,1.275));
#1547 = LINE('',#1548,#1549);
#1548 = CARTESIAN_POINT('',(5.674999,0.467104,1.275));
#1549 = VECTOR('',#1550,1.);
#1550 = DIRECTION('',(0.,-1.,0.));
#1551 = ORIENTED_EDGE('',*,*,#1552,.T.);
#1552 = EDGE_CURVE('',#1545,#1553,#1555,.T.);
#1553 = VERTEX_POINT('',#1554);
#1554 = CARTESIAN_POINT('',(5.848426,-9.4591E-02,1.275));
#1555 = LINE('',#1556,#1557);
#1556 = CARTESIAN_POINT('',(5.674999,-9.1228E-02,1.275));
#1557 = VECTOR('',#1558,1.);
#1558 = DIRECTION('',(0.999812038952,-1.938779940261E-02,0.));
#1559 = ORIENTED_EDGE('',*,*,#1560,.T.);
#1560 = EDGE_CURVE('',#1553,#1561,#1563,.T.);
#1561 = VERTEX_POINT('',#1562);
#1562 = CARTESIAN_POINT('',(5.848426,-0.437865,1.275));
#1563 = CIRCLE('',#1564,0.174999621857);
#1564 = AXIS2_PLACEMENT_3D('',#1565,#1566,#1567);
#1565 = CARTESIAN_POINT('',(5.814285,-0.266228,1.275));
#1566 = DIRECTION('',(0.,0.,-1.));
#1567 = DIRECTION('',(0.19509185013,0.980784976441,0.));
#1568 = ORIENTED_EDGE('',*,*,#1569,.T.);
#1569 = EDGE_CURVE('',#1561,#1570,#1572,.T.);
#1570 = VERTEX_POINT('',#1571);
#1571 = CARTESIAN_POINT('',(5.674999,-0.441228,1.275));
#1572 = LINE('',#1573,#1574);
#1573 = CARTESIAN_POINT('',(5.848426,-0.437865,1.275));
#1574 = VECTOR('',#1575,1.);
#1575 = DIRECTION('',(-0.999812038952,-1.938779940261E-02,0.));
#1576 = ORIENTED_EDGE('',*,*,#1577,.T.);
#1577 = EDGE_CURVE('',#1570,#1578,#1580,.T.);
#1578 = VERTEX_POINT('',#1579);
#1579 = CARTESIAN_POINT('',(5.674999,-0.999561,1.275));
#1580 = LINE('',#1581,#1582);
#1581 = CARTESIAN_POINT('',(5.674999,-0.441228,1.275));
#1582 = VECTOR('',#1583,1.);
#1583 = DIRECTION('',(0.,-1.,0.));
#1584 = ORIENTED_EDGE('',*,*,#1585,.T.);
#1585 = EDGE_CURVE('',#1578,#1586,#1588,.T.);
#1586 = VERTEX_POINT('',#1587);
#1587 = CARTESIAN_POINT('',(5.324999,-0.999561,1.275));
#1588 = CIRCLE('',#1589,0.175);
#1589 = AXIS2_PLACEMENT_3D('',#1590,#1591,#1592);
#1590 = CARTESIAN_POINT('',(5.499999,-0.999560614448,1.275));
#1591 = DIRECTION('',(-0.,0.,-1.));
#1592 = DIRECTION('',(0.999999999998,-2.203154666316E-06,-0.));
#1593 = ORIENTED_EDGE('',*,*,#1594,.T.);
#1594 = EDGE_CURVE('',#1586,#1595,#1597,.T.);
#1595 = VERTEX_POINT('',#1596);
#1596 = CARTESIAN_POINT('',(5.324999,-0.441228,1.275));
#1597 = LINE('',#1598,#1599);
#1598 = CARTESIAN_POINT('',(5.324999,-0.999561,1.275));
#1599 = VECTOR('',#1600,1.);
#1600 = DIRECTION('',(0.,1.,0.));
#1601 = ORIENTED_EDGE('',*,*,#1602,.T.);
#1602 = EDGE_CURVE('',#1595,#1603,#1605,.T.);
#1603 = VERTEX_POINT('',#1604);
#1604 = CARTESIAN_POINT('',(4.427167,-0.438744,1.275));
#1605 = LINE('',#1606,#1607);
#1606 = CARTESIAN_POINT('',(5.324999,-0.441228,1.275));
#1607 = VECTOR('',#1608,1.);
#1608 = DIRECTION('',(-0.999996172806,2.766653999021E-03,0.));
#1609 = ORIENTED_EDGE('',*,*,#1610,.T.);
#1610 = EDGE_CURVE('',#1603,#1611,#1613,.T.);
#1611 = VERTEX_POINT('',#1612);
#1612 = CARTESIAN_POINT('',(4.280743,-0.300369,1.275));
#1613 = CIRCLE('',#1614,0.172659615832);
#1614 = AXIS2_PLACEMENT_3D('',#1615,#1616,#1617);
#1615 = CARTESIAN_POINT('',(4.450271688327,-0.267637260459,1.275));
#1616 = DIRECTION('',(0.,0.,-1.));
#1617 = DIRECTION('',(-0.13381640064,-0.991006140707,-0.));
#1618 = ORIENTED_EDGE('',*,*,#1619,.T.);
#1619 = EDGE_CURVE('',#1611,#1620,#1622,.T.);
#1620 = VERTEX_POINT('',#1621);
#1621 = CARTESIAN_POINT('',(4.280743,-0.232087,1.275));
#1622 = LINE('',#1623,#1624);
#1623 = CARTESIAN_POINT('',(4.280743,-0.300369,1.275));
#1624 = VECTOR('',#1625,1.);
#1625 = DIRECTION('',(0.,1.,0.));
#1626 = ORIENTED_EDGE('',*,*,#1627,.T.);
#1627 = EDGE_CURVE('',#1620,#1628,#1630,.T.);
#1628 = VERTEX_POINT('',#1629);
#1629 = CARTESIAN_POINT('',(4.810171,1.36054,1.275));
#1630 = LINE('',#1631,#1632);
#1631 = CARTESIAN_POINT('',(4.280743,-0.232087,1.275));
#1632 = VECTOR('',#1633,1.);
#1633 = DIRECTION('',(0.315451347665,0.948941751245,0.));
#1634 = ORIENTED_EDGE('',*,*,#1635,.T.);
#1635 = EDGE_CURVE('',#1628,#1636,#1638,.T.);
#1636 = VERTEX_POINT('',#1637);
#1637 = CARTESIAN_POINT('',(4.824157,1.391866,1.275));
#1638 = LINE('',#1639,#1640);
#1639 = CARTESIAN_POINT('',(4.810171,1.36054,1.275));
#1640 = VECTOR('',#1641,1.);
#1641 = DIRECTION('',(0.407679485512,0.913125093891,0.));
#1642 = ORIENTED_EDGE('',*,*,#1643,.T.);
#1643 = EDGE_CURVE('',#1636,#1501,#1644,.T.);
#1644 = LINE('',#1645,#1646);
#1645 = CARTESIAN_POINT('',(4.824157,1.391866,1.275));
#1646 = VECTOR('',#1647,1.);
#1647 = DIRECTION('',(0.655204259655,0.755451770883,0.));
#1648 = PLANE('',#1649);
#1649 = AXIS2_PLACEMENT_3D('',#1650,#1651,#1652);
#1650 = CARTESIAN_POINT('',(0.,0.,1.275));
#1651 = DIRECTION('',(0.,0.,1.));
#1652 = DIRECTION('',(1.,0.,-0.));
#1653 = ( GEOMETRIC_REPRESENTATION_CONTEXT(3) 
GLOBAL_UNCERTAINTY_ASSIGNED_CONTEXT((#1657)) 
GLOBAL_UNIT_ASSIGNED_CONTEXT((#1654,#1655,#1656)) REPRESENTATION_CONTEXT
('Context #1','3D Context with UNIT and UNCERTAINTY') );
#1654 = ( LENGTH_UNIT() NAMED_UNIT(*) SI_UNIT(.MILLI.,.METRE.) );
#1655 = ( NAMED_UNIT(*) PLANE_ANGLE_UNIT() SI_UNIT($,.RADIAN.) );
#1656 = ( NAMED_UNIT(*) SI_UNIT($,.STERADIAN.) SOLID_ANGLE_UNIT() );
#1657 = UNCERTAINTY_MEASURE_WITH_UNIT(LENGTH_MEASURE(1.E-07),#1654,
  'distance_accuracy_value','confusion accuracy');
#1658 = CONTEXT_DEPENDENT_SHAPE_REPRESENTATION(#1659,#1661);
#1659 = ( REPRESENTATION_RELATIONSHIP('','',#36,#10) 
REPRESENTATION_RELATIONSHIP_WITH_TRANSFORMATION(#1660) 
SHAPE_REPRESENTATION_RELATIONSHIP() );
#1660 = ITEM_DEFINED_TRANSFORMATION('','',#11,#15);
#1661 = PRODUCT_DEFINITION_SHAPE('Placement','Placement of an item',
  #1662);
#1662 = NEXT_ASSEMBLY_USAGE_OCCURRENCE('1','=>[0:1:1:2]','',#5,#31,$);
#1663 = PRODUCT_RELATED_PRODUCT_CATEGORY('part',$,(#33));
#1664 = SHAPE_DEFINITION_REPRESENTATION(#1665,#1671);
#1665 = PRODUCT_DEFINITION_SHAPE('','',#1666);
#1666 = PRODUCT_DEFINITION('design','',#1667,#1670);
#1667 = PRODUCT_DEFINITION_FORMATION('','',#1668);
#1668 = PRODUCT('glass_PCB','glass_PCB','',(#1669));
#1669 = PRODUCT_CONTEXT('',#2,'mechanical');
#1670 = PRODUCT_DEFINITION_CONTEXT('part definition',#2,'design');
#1671 = ADVANCED_BREP_SHAPE_REPRESENTATION('',(#11,#1672),#1822);
#1672 = MANIFOLD_SOLID_BREP('',#1673);
#1673 = CLOSED_SHELL('',(#1674,#1714,#1745,#1776,#1798,#1810));
#1674 = ADVANCED_FACE('',(#1675),#1709,.T.);
#1675 = FACE_BOUND('',#1676,.T.);
#1676 = EDGE_LOOP('',(#1677,#1687,#1695,#1703));
#1677 = ORIENTED_EDGE('',*,*,#1678,.T.);
#1678 = EDGE_CURVE('',#1679,#1681,#1683,.T.);
#1679 = VERTEX_POINT('',#1680);
#1680 = CARTESIAN_POINT('',(18.5,-30.25,0.));
#1681 = VERTEX_POINT('',#1682);
#1682 = CARTESIAN_POINT('',(18.5,-30.25,1.2));
#1683 = LINE('',#1684,#1685);
#1684 = CARTESIAN_POINT('',(18.5,-30.25,0.));
#1685 = VECTOR('',#1686,1.);
#1686 = DIRECTION('',(0.,0.,1.));
#1687 = ORIENTED_EDGE('',*,*,#1688,.T.);
#1688 = EDGE_CURVE('',#1681,#1689,#1691,.T.);
#1689 = VERTEX_POINT('',#1690);
#1690 = CARTESIAN_POINT('',(-18.5,-30.25,1.2));
#1691 = LINE('',#1692,#1693);
#1692 = CARTESIAN_POINT('',(18.5,-30.25,1.2));
#1693 = VECTOR('',#1694,1.);
#1694 = DIRECTION('',(-1.,0.,0.));
#1695 = ORIENTED_EDGE('',*,*,#1696,.F.);
#1696 = EDGE_CURVE('',#1697,#1689,#1699,.T.);
#1697 = VERTEX_POINT('',#1698);
#1698 = CARTESIAN_POINT('',(-18.5,-30.25,0.));
#1699 = LINE('',#1700,#1701);
#1700 = CARTESIAN_POINT('',(-18.5,-30.25,0.));
#1701 = VECTOR('',#1702,1.);
#1702 = DIRECTION('',(0.,0.,1.));
#1703 = ORIENTED_EDGE('',*,*,#1704,.F.);
#1704 = EDGE_CURVE('',#1679,#1697,#1705,.T.);
#1705 = LINE('',#1706,#1707);
#1706 = CARTESIAN_POINT('',(18.5,-30.25,0.));
#1707 = VECTOR('',#1708,1.);
#1708 = DIRECTION('',(-1.,0.,0.));
#1709 = PLANE('',#1710);
#1710 = AXIS2_PLACEMENT_3D('',#1711,#1712,#1713);
#1711 = CARTESIAN_POINT('',(18.5,-30.25,0.));
#1712 = DIRECTION('',(0.,-1.,0.));
#1713 = DIRECTION('',(-1.,0.,0.));
#1714 = ADVANCED_FACE('',(#1715),#1740,.T.);
#1715 = FACE_BOUND('',#1716,.T.);
#1716 = EDGE_LOOP('',(#1717,#1718,#1726,#1734));
#1717 = ORIENTED_EDGE('',*,*,#1696,.T.);
#1718 = ORIENTED_EDGE('',*,*,#1719,.T.);
#1719 = EDGE_CURVE('',#1689,#1720,#1722,.T.);
#1720 = VERTEX_POINT('',#1721);
#1721 = CARTESIAN_POINT('',(-18.5,30.25,1.2));
#1722 = LINE('',#1723,#1724);
#1723 = CARTESIAN_POINT('',(-18.5,-30.25,1.2));
#1724 = VECTOR('',#1725,1.);
#1725 = DIRECTION('',(0.,1.,0.));
#1726 = ORIENTED_EDGE('',*,*,#1727,.F.);
#1727 = EDGE_CURVE('',#1728,#1720,#1730,.T.);
#1728 = VERTEX_POINT('',#1729);
#1729 = CARTESIAN_POINT('',(-18.5,30.25,0.));
#1730 = LINE('',#1731,#1732);
#1731 = CARTESIAN_POINT('',(-18.5,30.25,0.));
#1732 = VECTOR('',#1733,1.);
#1733 = DIRECTION('',(0.,0.,1.));
#1734 = ORIENTED_EDGE('',*,*,#1735,.F.);
#1735 = EDGE_CURVE('',#1697,#1728,#1736,.T.);
#1736 = LINE('',#1737,#1738);
#1737 = CARTESIAN_POINT('',(-18.5,-30.25,0.));
#1738 = VECTOR('',#1739,1.);
#1739 = DIRECTION('',(0.,1.,0.));
#1740 = PLANE('',#1741);
#1741 = AXIS2_PLACEMENT_3D('',#1742,#1743,#1744);
#1742 = CARTESIAN_POINT('',(-18.5,-30.25,0.));
#1743 = DIRECTION('',(-1.,0.,0.));
#1744 = DIRECTION('',(0.,1.,0.));
#1745 = ADVANCED_FACE('',(#1746),#1771,.T.);
#1746 = FACE_BOUND('',#1747,.T.);
#1747 = EDGE_LOOP('',(#1748,#1749,#1757,#1765));
#1748 = ORIENTED_EDGE('',*,*,#1727,.T.);
#1749 = ORIENTED_EDGE('',*,*,#1750,.T.);
#1750 = EDGE_CURVE('',#1720,#1751,#1753,.T.);
#1751 = VERTEX_POINT('',#1752);
#1752 = CARTESIAN_POINT('',(18.5,30.25,1.2));
#1753 = LINE('',#1754,#1755);
#1754 = CARTESIAN_POINT('',(-18.5,30.25,1.2));
#1755 = VECTOR('',#1756,1.);
#1756 = DIRECTION('',(1.,0.,0.));
#1757 = ORIENTED_EDGE('',*,*,#1758,.F.);
#1758 = EDGE_CURVE('',#1759,#1751,#1761,.T.);
#1759 = VERTEX_POINT('',#1760);
#1760 = CARTESIAN_POINT('',(18.5,30.25,0.));
#1761 = LINE('',#1762,#1763);
#1762 = CARTESIAN_POINT('',(18.5,30.25,0.));
#1763 = VECTOR('',#1764,1.);
#1764 = DIRECTION('',(0.,0.,1.));
#1765 = ORIENTED_EDGE('',*,*,#1766,.F.);
#1766 = EDGE_CURVE('',#1728,#1759,#1767,.T.);
#1767 = LINE('',#1768,#1769);
#1768 = CARTESIAN_POINT('',(-18.5,30.25,0.));
#1769 = VECTOR('',#1770,1.);
#1770 = DIRECTION('',(1.,0.,0.));
#1771 = PLANE('',#1772);
#1772 = AXIS2_PLACEMENT_3D('',#1773,#1774,#1775);
#1773 = CARTESIAN_POINT('',(-18.5,30.25,0.));
#1774 = DIRECTION('',(0.,1.,0.));
#1775 = DIRECTION('',(1.,0.,0.));
#1776 = ADVANCED_FACE('',(#1777),#1793,.T.);
#1777 = FACE_BOUND('',#1778,.T.);
#1778 = EDGE_LOOP('',(#1779,#1780,#1786,#1787));
#1779 = ORIENTED_EDGE('',*,*,#1758,.T.);
#1780 = ORIENTED_EDGE('',*,*,#1781,.T.);
#1781 = EDGE_CURVE('',#1751,#1681,#1782,.T.);
#1782 = LINE('',#1783,#1784);
#1783 = CARTESIAN_POINT('',(18.5,30.25,1.2));
#1784 = VECTOR('',#1785,1.);
#1785 = DIRECTION('',(0.,-1.,0.));
#1786 = ORIENTED_EDGE('',*,*,#1678,.F.);
#1787 = ORIENTED_EDGE('',*,*,#1788,.F.);
#1788 = EDGE_CURVE('',#1759,#1679,#1789,.T.);
#1789 = LINE('',#1790,#1791);
#1790 = CARTESIAN_POINT('',(18.5,30.25,0.));
#1791 = VECTOR('',#1792,1.);
#1792 = DIRECTION('',(0.,-1.,0.));
#1793 = PLANE('',#1794);
#1794 = AXIS2_PLACEMENT_3D('',#1795,#1796,#1797);
#1795 = CARTESIAN_POINT('',(18.5,30.25,0.));
#1796 = DIRECTION('',(1.,0.,-0.));
#1797 = DIRECTION('',(0.,-1.,0.));
#1798 = ADVANCED_FACE('',(#1799),#1805,.F.);
#1799 = FACE_BOUND('',#1800,.T.);
#1800 = EDGE_LOOP('',(#1801,#1802,#1803,#1804));
#1801 = ORIENTED_EDGE('',*,*,#1704,.T.);
#1802 = ORIENTED_EDGE('',*,*,#1735,.T.);
#1803 = ORIENTED_EDGE('',*,*,#1766,.T.);
#1804 = ORIENTED_EDGE('',*,*,#1788,.T.);
#1805 = PLANE('',#1806);
#1806 = AXIS2_PLACEMENT_3D('',#1807,#1808,#1809);
#1807 = CARTESIAN_POINT('',(0.,0.,0.));
#1808 = DIRECTION('',(0.,0.,1.));
#1809 = DIRECTION('',(1.,0.,-0.));
#1810 = ADVANCED_FACE('',(#1811),#1817,.T.);
#1811 = FACE_BOUND('',#1812,.F.);
#1812 = EDGE_LOOP('',(#1813,#1814,#1815,#1816));
#1813 = ORIENTED_EDGE('',*,*,#1688,.T.);
#1814 = ORIENTED_EDGE('',*,*,#1719,.T.);
#1815 = ORIENTED_EDGE('',*,*,#1750,.T.);
#1816 = ORIENTED_EDGE('',*,*,#1781,.T.);
#1817 = PLANE('',#1818);
#1818 = AXIS2_PLACEMENT_3D('',#1819,#1820,#1821);
#1819 = CARTESIAN_POINT('',(0.,0.,1.2));
#1820 = DIRECTION('',(0.,0.,1.));
#1821 = DIRECTION('',(1.,0.,-0.));
#1822 = ( GEOMETRIC_REPRESENTATION_CONTEXT(3) 
GLOBAL_UNCERTAINTY_ASSIGNED_CONTEXT((#1826)) 
GLOBAL_UNIT_ASSIGNED_CONTEXT((#1823,#1824,#1825)) REPRESENTATION_CONTEXT
('Context #1','3D Context with UNIT and UNCERTAINTY') );
#1823 = ( LENGTH_UNIT() NAMED_UNIT(*) SI_UNIT(.MILLI.,.METRE.) );
#1824 = ( NAMED_UNIT(*) PLANE_ANGLE_UNIT() SI_UNIT($,.RADIAN.) );
#1825 = ( NAMED_UNIT(*) SI_UNIT($,.STERADIAN.) SOLID_ANGLE_UNIT() );
#1826 = UNCERTAINTY_MEASURE_WITH_UNIT(LENGTH_MEASURE(1.E-07),#1823,
  'distance_accuracy_value','confusion accuracy');
#1827 = CONTEXT_DEPENDENT_SHAPE_REPRESENTATION(#1828,#1830);
#1828 = ( REPRESENTATION_RELATIONSHIP('','',#1671,#10) 
REPRESENTATION_RELATIONSHIP_WITH_TRANSFORMATION(#1829) 
SHAPE_REPRESENTATION_RELATIONSHIP() );
#1829 = ITEM_DEFINED_TRANSFORMATION('','',#11,#19);
#1830 = PRODUCT_DEFINITION_SHAPE('Placement','Placement of an item',
  #1831);
#1831 = NEXT_ASSEMBLY_USAGE_OCCURRENCE('2','=>[0:1:1:3]','',#5,#1666,$);
#1832 = PRODUCT_RELATED_PRODUCT_CATEGORY('part',$,(#1668));
#1833 = MECHANICAL_DESIGN_GEOMETRIC_PRESENTATION_REPRESENTATION('',(
    #1834),#1822);
#1834 = STYLED_ITEM('color',(#1835),#1672);
#1835 = PRESENTATION_STYLE_ASSIGNMENT((#1836));
#1836 = SURFACE_STYLE_USAGE(.BOTH.,#1837);
#1837 = SURFACE_SIDE_STYLE('',(#1838));
#1838 = SURFACE_STYLE_FILL_AREA(#1839);
#1839 = FILL_AREA_STYLE('',(#1840));
#1840 = FILL_AREA_STYLE_COLOUR('',#1841);
#1841 = COLOUR_RGB('',0.313304153717,0.484529207832,0.410020903123);
#1842 = MECHANICAL_DESIGN_GEOMETRIC_PRESENTATION_REPRESENTATION('',(
    #1843,#1853,#1862,#1871,#1880,#1889),#1653);
#1843 = STYLED_ITEM('color',(#1844),#39);
#1844 = PRESENTATION_STYLE_ASSIGNMENT((#1845));
#1845 = SURFACE_STYLE_USAGE(.BOTH.,#1846);
#1846 = SURFACE_SIDE_STYLE('',(#1847,#1851));
#1847 = SURFACE_STYLE_FILL_AREA(#1848);
#1848 = FILL_AREA_STYLE('',(#1849));
#1849 = FILL_AREA_STYLE_COLOUR('',#1850);
#1850 = DRAUGHTING_PRE_DEFINED_COLOUR('white');
#1851 = SURFACE_STYLE_RENDERING_WITH_PROPERTIES(.NORMAL_SHADING.,#1850,(
    #1852));
#1852 = SURFACE_STYLE_TRANSPARENT(0.100000023842);
#1853 = STYLED_ITEM('color',(#1854),#190);
#1854 = PRESENTATION_STYLE_ASSIGNMENT((#1855));
#1855 = SURFACE_STYLE_USAGE(.BOTH.,#1856);
#1856 = SURFACE_SIDE_STYLE('',(#1857,#1860));
#1857 = SURFACE_STYLE_FILL_AREA(#1858);
#1858 = FILL_AREA_STYLE('',(#1859));
#1859 = FILL_AREA_STYLE_COLOUR('',#1850);
#1860 = SURFACE_STYLE_RENDERING_WITH_PROPERTIES(.NORMAL_SHADING.,#1850,(
    #1861));
#1861 = SURFACE_STYLE_TRANSPARENT(0.100000023842);
#1862 = STYLED_ITEM('color',(#1863),#436);
#1863 = PRESENTATION_STYLE_ASSIGNMENT((#1864));
#1864 = SURFACE_STYLE_USAGE(.BOTH.,#1865);
#1865 = SURFACE_SIDE_STYLE('',(#1866,#1869));
#1866 = SURFACE_STYLE_FILL_AREA(#1867);
#1867 = FILL_AREA_STYLE('',(#1868));
#1868 = FILL_AREA_STYLE_COLOUR('',#1850);
#1869 = SURFACE_STYLE_RENDERING_WITH_PROPERTIES(.NORMAL_SHADING.,#1850,(
    #1870));
#1870 = SURFACE_STYLE_TRANSPARENT(0.100000023842);
#1871 = STYLED_ITEM('color',(#1872),#985);
#1872 = PRESENTATION_STYLE_ASSIGNMENT((#1873));
#1873 = SURFACE_STYLE_USAGE(.BOTH.,#1874);
#1874 = SURFACE_SIDE_STYLE('',(#1875,#1878));
#1875 = SURFACE_STYLE_FILL_AREA(#1876);
#1876 = FILL_AREA_STYLE('',(#1877));
#1877 = FILL_AREA_STYLE_COLOUR('',#1850);
#1878 = SURFACE_STYLE_RENDERING_WITH_PROPERTIES(.NORMAL_SHADING.,#1850,(
    #1879));
#1879 = SURFACE_STYLE_TRANSPARENT(0.100000023842);
#1880 = STYLED_ITEM('color',(#1881),#1386);
#1881 = PRESENTATION_STYLE_ASSIGNMENT((#1882));
#1882 = SURFACE_STYLE_USAGE(.BOTH.,#1883);
#1883 = SURFACE_SIDE_STYLE('',(#1884,#1887));
#1884 = SURFACE_STYLE_FILL_AREA(#1885);
#1885 = FILL_AREA_STYLE('',(#1886));
#1886 = FILL_AREA_STYLE_COLOUR('',#1850);
#1887 = SURFACE_STYLE_RENDERING_WITH_PROPERTIES(.NORMAL_SHADING.,#1850,(
    #1888));
#1888 = SURFACE_STYLE_TRANSPARENT(0.100000023842);
#1889 = STYLED_ITEM('color',(#1890),#1496);
#1890 = PRESENTATION_STYLE_ASSIGNMENT((#1891));
#1891 = SURFACE_STYLE_USAGE(.BOTH.,#1892);
#1892 = SURFACE_SIDE_STYLE('',(#1893,#1896));
#1893 = SURFACE_STYLE_FILL_AREA(#1894);
#1894 = FILL_AREA_STYLE('',(#1895));
#1895 = FILL_AREA_STYLE_COLOUR('',#1850);
#1896 = SURFACE_STYLE_RENDERING_WITH_PROPERTIES(.NORMAL_SHADING.,#1850,(
    #1897));
#1897 = SURFACE_STYLE_TRANSPARENT(0.100000023842);
ENDSEC;
END-ISO-10303-21;
